<svg width="22" height="21" viewBox="0 0 22 21" fill="none" xmlns="http://www.w3.org/2000/svg">
<path d="M11.9273 7.56381H9.87314V5.50993H11.9273V7.56381ZM11.9273 15.7793H9.87314V9.61768H11.9273V15.7793ZM10.9002 0.375244C9.55144 0.375244 8.21586 0.64087 6.96975 1.15695C5.72363 1.67304 4.59138 2.42948 3.63765 3.38308C1.7115 5.30896 0.629395 7.92101 0.629395 10.6446C0.629395 13.3682 1.7115 15.9803 3.63765 17.9062C4.59138 18.8598 5.72363 19.6162 6.96975 20.1323C8.21586 20.6484 9.55144 20.914 10.9002 20.914C13.6242 20.914 16.2366 19.8321 18.1628 17.9062C20.0889 15.9803 21.1711 13.3682 21.1711 10.6446C21.1711 9.29603 20.9054 7.96064 20.3892 6.7147C19.8731 5.46876 19.1165 4.33668 18.1628 3.38308C17.2091 2.42948 16.0768 1.67304 14.8307 1.15695C13.5846 0.64087 12.249 0.375244 10.9002 0.375244Z" fill="#1B78CD"/>
</svg>
