<svg width="61" height="61" viewBox="0 0 61 61" fill="none" xmlns="http://www.w3.org/2000/svg">
<path d="M45.6001 5.60014V55.539C45.6001 58.475 43.2104 60.8643 40.2739 60.8643H5.59472C2.65823 60.8643 0.268555 58.475 0.268555 55.539V5.60014C0.268555 2.66416 2.65823 0.274902 5.59472 0.274902H40.2739C43.2104 0.274902 45.6001 2.66416 45.6001 5.60014Z" fill="#EEF4FF"/>
<path d="M45.6002 5.60014V55.539C45.6002 58.475 43.2106 60.8643 40.2741 60.8643H22.9937V0.274902H40.2741C43.2106 0.274902 45.6002 2.66416 45.6002 5.60014Z" fill="#D9E6FC"/>
<path d="M38.0253 13.529C38.0253 14.5088 37.2299 15.304 36.2499 15.304H9.73731C8.75729 15.304 7.96191 14.5088 7.96191 13.529C7.96191 12.5491 8.75729 11.7539 9.73731 11.7539H36.2499C37.2299 11.7539 38.0253 12.5491 38.0253 13.529Z" fill="#425796"/>
<path d="M38.025 13.529C38.025 14.5088 37.2296 15.304 36.2496 15.304H22.875V11.7539H36.2496C37.2296 11.7539 38.025 12.5491 38.025 13.529Z" fill="#283758"/>
<path d="M32.3441 22.9958C32.3441 23.9756 31.5487 24.7709 30.5687 24.7709H9.73732C8.75729 24.7709 7.96191 23.9756 7.96191 22.9958C7.96191 22.0159 8.75729 21.2207 9.73732 21.2207H30.5687C31.5487 21.2207 32.3441 22.0159 32.3441 22.9958Z" fill="#425796"/>
<path d="M32.3438 22.9958C32.3438 23.9756 31.5484 24.7709 30.5684 24.7709H22.875V21.2207H30.5684C31.5484 21.2207 32.3438 22.0159 32.3438 22.9958Z" fill="#283758"/>
<path d="M26.6627 32.4631C26.6627 33.4429 25.8673 34.2382 24.8873 34.2382H9.73731C8.75729 34.2382 7.96191 33.4429 7.96191 32.4631C7.96191 31.4832 8.75729 30.688 9.73731 30.688H24.8873C25.8673 30.688 26.6627 31.4832 26.6627 32.4631Z" fill="#425796"/>
<path d="M26.6625 32.4631C26.6625 33.4429 25.8671 34.2382 24.8871 34.2382H22.875V30.688H24.8871C25.8671 30.688 26.6625 31.4832 26.6625 32.4631Z" fill="#283758"/>
<path d="M60.3761 26.699C60.1548 27.0729 59.415 27.8327 54.4582 32.7236C51.5856 35.5578 47.2963 39.7813 40.8717 46.1219C40.5628 46.4284 41.2611 46.0545 30.3319 51.1537C28.8228 51.8602 27.277 50.2827 27.9718 48.794C33.0802 37.8512 32.6967 38.5613 33.0127 38.2488C39.4159 31.8467 43.6697 27.5912 46.4973 24.7641C51.9927 19.2673 52.1004 19.1631 52.1135 19.1773C53.5373 18.0271 55.5837 18.1407 56.8644 19.4211C60.0719 22.6281 59.9169 22.4613 60.0719 22.6541C60.9809 23.7618 61.1478 25.3819 60.3761 26.699Z" fill="#FFE278"/>
<path d="M60.376 26.6987C60.0268 27.2892 58.3816 28.8418 40.8717 46.1216C40.5628 46.4281 41.2611 46.0542 30.3319 51.1534C30.0916 51.2658 29.8348 51.3203 29.5815 51.3203C29.0903 51.3203 28.6618 51.1274 28.3494 50.8232L58.3118 20.8669C60.0233 22.5769 59.944 22.4953 60.0718 22.6539C60.9808 23.7615 61.1477 25.3816 60.376 26.6987Z" fill="#FFB454"/>
<path d="M60.3761 26.699C60.1548 27.0729 59.415 27.8326 54.4581 32.7236L54.4487 32.7153L50.4552 28.7225L46.4973 24.7665V24.7641C51.9927 19.2673 52.1004 19.1631 52.1135 19.1773C53.5373 18.0271 55.5837 18.1407 56.8644 19.4211C57.4526 20.0093 57.9272 20.4838 58.3119 20.8672C60.0258 22.5796 59.9453 22.4967 60.0719 22.6541C60.9809 23.7618 61.1478 25.3818 60.3761 26.699Z" fill="#DD5958"/>
<path d="M60.376 26.6987C60.1546 27.0726 59.4149 27.8324 54.458 32.7233L54.4485 32.715L50.4551 28.7223L58.3118 20.8669C60.0256 22.5793 59.9451 22.4965 60.0718 22.6539C60.9808 23.7615 61.1477 25.3816 60.376 26.6987Z" fill="#D8225B"/>
</svg>
