<svg width="23" height="23" viewBox="0 0 23 23" fill="none" xmlns="http://www.w3.org/2000/svg">
<path d="M15.5221 10.5199C18.0898 10.5199 20.144 12.5738 20.144 15.1411C20.144 16.0448 19.8872 16.8972 19.4353 17.6058L22.5987 20.7893L21.1711 22.2167L17.9666 19.064C17.2579 19.5056 16.4157 19.7624 15.5221 19.7624C12.9544 19.7624 10.9002 17.7085 10.9002 15.1411C10.9002 12.5738 12.9544 10.5199 15.5221 10.5199ZM15.5221 12.5738C14.8411 12.5738 14.188 12.8443 13.7065 13.3257C13.2249 13.8072 12.9544 14.4602 12.9544 15.1411C12.9544 15.822 13.2249 16.475 13.7065 16.9565C14.188 17.438 14.8411 17.7085 15.5221 17.7085C16.2031 17.7085 16.8562 17.438 17.3377 16.9565C17.8193 16.475 18.0898 15.822 18.0898 15.1411C18.0898 14.4602 17.8193 13.8072 17.3377 13.3257C16.8562 12.8443 16.2031 12.5738 15.5221 12.5738ZM8.84606 0.250488H12.9544C13.4992 0.250488 14.0217 0.466879 14.4069 0.852056C14.7921 1.23723 15.0086 1.75965 15.0086 2.30437V4.35825H19.1169C19.6617 4.35825 20.1842 4.57464 20.5694 4.95982C20.9546 5.34499 21.1711 5.86741 21.1711 6.41213V11.5776C19.9899 9.70861 17.9049 8.46601 15.5221 8.46601C13.7515 8.46601 12.0534 9.16928 10.8014 10.4211C9.54943 11.6729 8.84606 13.3708 8.84606 15.1411C8.84606 16.9383 9.55475 18.5608 10.7051 19.7624H2.68356C1.5435 19.7624 0.629395 18.8381 0.629395 17.7085V6.41213C0.629395 5.27223 1.5435 4.35825 2.68356 4.35825H6.7919V2.30437C6.7919 1.16446 7.706 0.250488 8.84606 0.250488ZM12.9544 4.35825V2.30437H8.84606V4.35825H12.9544Z" fill="#1B78CD"/>
</svg>
