<svg width="51" height="11" viewBox="0 0 51 11" fill="none" xmlns="http://www.w3.org/2000/svg">
<path d="M11.3443 5.67756C11.3443 7.03936 10.7928 8.3454 9.8112 9.30834C8.82961 10.2713 7.49827 10.8123 6.11008 10.8123C4.7219 10.8123 3.39057 10.2713 2.40897 9.30834C1.42737 8.3454 0.875915 7.03937 0.875915 5.67756C0.875915 4.31575 1.42737 3.00972 2.40897 2.04678C3.39057 1.08383 4.7219 0.542855 6.11008 0.542855C7.49827 0.542855 8.82961 1.08383 9.8112 2.04678C10.7928 3.00972 11.3443 4.31575 11.3443 5.67756ZM31.7871 5.67756C31.7871 7.03936 31.2357 8.34539 30.2541 9.30834C29.2725 10.2713 27.9412 10.8123 26.553 10.8123C25.1648 10.8123 23.8335 10.2713 22.8519 9.30834C21.8703 8.34539 21.3188 7.03936 21.3188 5.67756C21.3188 4.31575 21.8703 3.00972 22.8519 2.04677C23.8335 1.08383 25.1648 0.542854 26.553 0.542854C27.9412 0.542853 29.2725 1.08383 30.2541 2.04677C31.2357 3.00972 31.7871 4.31575 31.7871 5.67756ZM50.6499 5.67755C50.6499 7.03936 50.0984 8.34539 49.1168 9.30834C48.1353 10.2713 46.8039 10.8123 45.4157 10.8123C44.0275 10.8123 42.6962 10.2713 41.7146 9.30834C40.733 8.34539 40.1816 7.03936 40.1816 5.67755C40.1816 4.31575 40.733 3.00972 41.7146 2.04677C42.6962 1.08383 44.0275 0.542852 45.4157 0.542852C46.8039 0.542852 48.1353 1.08383 49.1168 2.04677C50.0984 3.00972 50.6499 4.31575 50.6499 5.67755Z" fill="white" fill-opacity="0.7"/>
</svg>
