<svg width="46" height="61" viewBox="0 0 46 61" fill="none" xmlns="http://www.w3.org/2000/svg">
<path d="M45.3872 45.2143V13.0795C45.3872 12.4282 45.1284 11.8035 44.6678 11.343L34.3175 0.994167C33.8568 0.533654 33.2322 0.274902 32.5808 0.274902H2.65186C1.29538 0.274902 0.195801 1.37433 0.195801 2.73062V45.2143L22.7916 51.5625L45.3872 45.2143Z" fill="#DFF6FD"/>
<path d="M36.0542 15.9914H40.2295C40.9077 15.9914 41.4575 16.5412 41.4575 17.2192V45.2142H45.3872V13.0795C45.3872 12.4282 45.1284 11.8035 44.6678 11.343L34.3175 0.994166C33.8568 0.533653 33.2322 0.274902 32.5808 0.274902H29.6685V9.60657C29.6685 13.1328 32.5275 15.9914 36.0542 15.9914Z" fill="#C8EFFE"/>
<path d="M0.195801 58.2297C0.195801 59.5859 1.29538 60.6854 2.65186 60.6854H42.9311C44.2876 60.6854 45.3872 59.5859 45.3872 58.2297V45.2144H0.195801V58.2297Z" fill="#FF5959"/>
<path d="M41.4575 58.2296C41.4575 59.5859 40.3579 60.6853 39.0015 60.6853H42.9312C44.2594 60.7059 45.4078 59.5576 45.3873 58.2296V45.2144H41.4575V58.2296Z" fill="#FE646F"/>
<path d="M36.0542 12.0622H45.1637C45.0431 11.7974 44.8777 11.5526 44.6678 11.3429L34.3175 0.994082C34.1078 0.784415 33.863 0.618994 33.5981 0.498291V9.60648C33.5981 10.9628 34.6977 12.0622 36.0542 12.0622Z" fill="#62DBFB"/>
<path d="M22.7915 52.5813C30.2519 52.5813 36.2998 46.5343 36.2998 39.075C36.2998 31.6156 30.2519 25.5686 22.7915 25.5686C15.3311 25.5686 9.2832 31.6156 9.2832 39.075C9.2832 46.5343 15.3311 52.5813 22.7915 52.5813Z" fill="#4CE166"/>
<path d="M29.9342 27.6101C31.2276 29.682 31.9759 32.1292 31.9759 34.7515C31.9759 42.2108 25.9281 48.2579 18.4676 48.2579C15.8449 48.2579 13.3974 47.5098 11.3252 46.2165C13.711 50.0382 17.9541 52.5814 22.7917 52.5814C30.2522 52.5814 36.3 46.5345 36.3 39.075C36.3 34.2381 33.7564 29.9956 29.9342 27.6101Z" fill="#44C868"/>
<path d="M27.9871 38.6781H26.1068V31.4915C26.1068 30.8134 25.557 30.2637 24.8789 30.2637H20.7036C20.0254 30.2637 19.4756 30.8134 19.4756 31.4915V38.6781H17.5955C16.5767 38.6781 16.0009 39.8472 16.6222 40.6547L21.818 47.4071C22.3096 48.0459 23.273 48.0459 23.7646 47.4071L28.9605 40.6547C29.5818 39.8471 29.0061 38.6781 27.9871 38.6781Z" fill="#F2FBFF"/>
<path d="M24.0298 6.92844H21.9825V4.84357H24.2829C24.7717 4.84357 25.1679 4.44748 25.1679 3.95865C25.1679 3.46982 24.7717 3.07373 24.2829 3.07373H21.0974C20.6087 3.07373 20.2124 3.46982 20.2124 3.95865V11.8167C20.2124 12.3056 20.6087 12.7017 21.0974 12.7017C21.5862 12.7017 21.9825 12.3056 21.9825 11.8167V8.69828H24.0298C24.5186 8.69828 24.9148 8.30219 24.9148 7.81336C24.9148 7.32453 24.5186 6.92844 24.0298 6.92844Z" fill="#FF5959"/>
<path d="M14.2394 3.07373H12.0135C11.7784 3.07373 11.553 3.16718 11.387 3.33354C11.2209 3.49991 11.1279 3.72539 11.1284 3.96042L11.1443 11.8186C11.1448 12.0535 11.2388 12.2787 11.4054 12.4443C11.5713 12.6092 11.7956 12.7018 12.0294 12.7018H12.0327C12.1 12.7015 13.6864 12.6954 14.32 12.6844C16.6251 12.6441 18.2982 10.6269 18.2982 7.88793C18.2984 5.00828 16.6673 3.07373 14.2394 3.07373ZM14.2892 10.9147C13.9746 10.9203 13.4029 10.9245 12.9127 10.9275L12.9004 4.84357H14.2395C15.927 4.84357 16.5284 6.41613 16.5284 7.88782C16.5283 9.32681 15.8275 10.8878 14.2892 10.9147Z" fill="#FF5959"/>
<path d="M6.0681 3.07397H3.87967C3.39089 3.07397 2.99463 3.47007 2.99463 3.9589V11.817C2.99463 12.3059 3.39089 12.702 3.87967 12.702C4.36846 12.702 4.76472 12.3059 4.76472 11.817V9.28379C5.2312 9.28131 5.76836 9.27895 6.0681 9.27895C7.80302 9.27895 9.21449 7.88714 9.21449 6.17641C9.21449 4.46567 7.80302 3.07397 6.0681 3.07397ZM6.0681 7.50922C5.76824 7.50922 5.23202 7.5117 4.76472 7.51406V4.84383H6.0681C6.81413 4.84383 7.4444 5.45419 7.4444 6.17652C7.4444 6.89886 6.81413 7.50922 6.0681 7.50922Z" fill="#FF5959"/>
<path d="M19.1072 16.6307H3.87967C3.39089 16.6307 2.99463 16.2346 2.99463 15.7458C2.99463 15.2569 3.39089 14.8608 3.87967 14.8608H19.1072C19.596 14.8608 19.9922 15.2569 19.9922 15.7458C19.9922 16.2346 19.596 16.6307 19.1072 16.6307Z" fill="#FF5959"/>
<path d="M12.9671 20.5597H3.87968C3.39089 20.5597 2.99463 20.1636 2.99463 19.6747C2.99463 19.1859 3.39089 18.7898 3.87968 18.7898H12.9671C13.4559 18.7898 13.8521 19.1859 13.8521 19.6747C13.8521 20.1636 13.4559 20.5597 12.9671 20.5597Z" fill="#FF5959"/>
</svg>
