<svg width="23" height="17" viewBox="0 0 23 17" fill="none" xmlns="http://www.w3.org/2000/svg">
<path d="M11.671 5.57459C10.8538 5.57459 10.07 5.89917 9.49219 6.47694C8.91434 7.0547 8.58971 7.83832 8.58971 8.6554C8.58971 9.47249 8.91434 10.2561 9.49219 10.8339C10.07 11.4116 10.8538 11.7362 11.671 11.7362C12.4882 11.7362 13.2719 11.4116 13.8497 10.8339C14.4276 10.2561 14.7522 9.47249 14.7522 8.6554C14.7522 7.83832 14.4276 7.0547 13.8497 6.47694C13.2719 5.89917 12.4882 5.57459 11.671 5.57459ZM11.671 13.7901C10.309 13.7901 9.00275 13.2491 8.03967 12.2862C7.0766 11.3232 6.53554 10.0172 6.53554 8.6554C6.53554 7.2936 7.0766 5.98757 8.03967 5.02463C9.00275 4.06169 10.309 3.52071 11.671 3.52071C13.033 3.52071 14.3392 4.06169 15.3022 5.02463C16.2653 5.98757 16.8064 7.2936 16.8064 8.6554C16.8064 10.0172 16.2653 11.3232 15.3022 12.2862C14.3392 13.2491 13.033 13.7901 11.671 13.7901ZM11.671 0.953369C6.53554 0.953369 2.1499 4.14715 0.373047 8.6554C2.1499 13.1637 6.53554 16.3574 11.671 16.3574C16.8064 16.3574 21.192 13.1637 22.9689 8.6554C21.192 4.14715 16.8064 0.953369 11.671 0.953369Z" fill="#FF5959"/>
</svg>
