<svg width="45" height="45" viewBox="0 0 45 45" fill="none" xmlns="http://www.w3.org/2000/svg">
<path fill-rule="evenodd" clip-rule="evenodd" d="M2.14375 41.8136H43.2625C44.1036 41.8136 44.7854 42.4953 44.7854 43.3363C44.7854 44.1773 44.1035 44.859 43.2625 44.859H2.14375C1.30264 44.859 0.62085 44.1772 0.62085 43.3363C0.62085 42.4953 1.30264 41.8136 2.14375 41.8136Z" fill="#CB8252"/>
<path fill-rule="evenodd" clip-rule="evenodd" d="M2.1438 9.83704H43.2626V41.8138H2.1438V9.83704Z" fill="#E5EDF0"/>
<path fill-rule="evenodd" clip-rule="evenodd" d="M41.9467 6.82039L23.1279 1.49104C22.9694 1.45059 22.802 1.4631 22.6513 1.52683C22.5134 1.47836 22.3643 1.47147 22.2226 1.507L3.45939 6.82039C3.09399 6.92405 2.86092 7.28119 2.91302 7.65731C2.96521 8.03351 3.28661 8.31372 3.6665 8.31407C3.73654 8.31415 3.80624 8.30441 3.8736 8.28517L22.6375 2.97334C22.6573 2.96721 22.6709 2.95281 22.6908 2.94591C22.6984 2.94591 22.7045 2.95505 22.7129 2.9573L41.5324 8.28664C41.5998 8.30536 41.6695 8.31458 41.7395 8.31407C42.1193 8.31363 42.4408 8.03342 42.493 7.65731C42.5451 7.28119 42.3121 6.92405 41.9467 6.82039Z" fill="#7F8C8D"/>
<path fill-rule="evenodd" clip-rule="evenodd" d="M6.71267 13.6437H18.896C19.3165 13.6437 19.6575 13.9845 19.6575 14.4051V29.6322C19.6575 30.0526 19.3166 30.3936 18.896 30.3936H6.71267C6.29215 30.3936 5.95117 30.0527 5.95117 29.6322V14.4051C5.95117 13.9845 6.29207 13.6437 6.71267 13.6437Z" fill="#9FC9D3"/>
<path fill-rule="evenodd" clip-rule="evenodd" d="M39.4553 31.9162V25.0641C39.4553 24.6437 39.1144 24.3027 38.6938 24.3027H26.5105C26.09 24.3027 25.749 24.6436 25.749 25.0641V37.2456C25.749 37.666 26.0899 38.007 26.5105 38.007H33.3636L39.4553 31.9162Z" fill="#F3D55B"/>
<path fill-rule="evenodd" clip-rule="evenodd" d="M33.3633 38.007V32.6775C33.3633 32.2571 33.7042 31.9161 34.1248 31.9161H39.4551L33.3633 38.007Z" fill="#F0C419"/>
<path fill-rule="evenodd" clip-rule="evenodd" d="M10.5208 18.9733H8.99782C8.57731 18.9733 8.23633 18.6325 8.23633 18.212C8.23633 17.7915 8.57722 17.4507 8.99782 17.4507H10.5207C10.9412 17.4507 11.2822 17.7915 11.2822 18.212C11.2822 18.6325 10.9413 18.9733 10.5208 18.9733Z" fill="#35495E"/>
<path fill-rule="evenodd" clip-rule="evenodd" d="M16.6114 18.9733H13.5655C13.145 18.9733 12.804 18.6324 12.804 18.2119C12.804 17.7913 13.1449 17.4504 13.5655 17.4504H16.6114C17.0319 17.4504 17.3729 17.7913 17.3729 18.2119C17.3729 18.6324 17.032 18.9733 16.6114 18.9733Z" fill="#35495E"/>
<path fill-rule="evenodd" clip-rule="evenodd" d="M16.6114 22.78H8.99684C8.57633 22.78 8.23535 22.4392 8.23535 22.0186C8.23535 21.5981 8.57625 21.2572 8.99684 21.2572H16.6114C17.0319 21.2572 17.3729 21.5981 17.3729 22.0186C17.3729 22.4392 17.032 22.78 16.6114 22.78Z" fill="#35495E"/>
<path fill-rule="evenodd" clip-rule="evenodd" d="M10.5198 26.5868H8.99685C8.57633 26.5868 8.23535 26.2459 8.23535 25.8254C8.23535 25.4048 8.57625 25.064 8.99685 25.064H10.5198C10.9403 25.064 11.2812 25.4048 11.2812 25.8254C11.2812 26.2459 10.9404 26.5868 10.5198 26.5868Z" fill="#35495E"/>
<path fill-rule="evenodd" clip-rule="evenodd" d="M16.6114 26.5868H13.5655C13.145 26.5868 12.804 26.2459 12.804 25.8254C12.804 25.4048 13.1449 25.064 13.5655 25.064H16.6114C17.0319 25.064 17.3729 25.4048 17.3729 25.8254C17.3729 26.2459 17.032 26.5868 16.6114 26.5868Z" fill="#35495E"/>
<path fill-rule="evenodd" clip-rule="evenodd" d="M2.14375 6.79163H43.2625C44.1036 6.79163 44.7854 7.47336 44.7854 8.31439C44.7854 9.15543 44.1035 9.83716 43.2625 9.83716H2.14375C1.30264 9.83716 0.62085 9.15543 0.62085 8.31439C0.62085 7.47336 1.30264 6.79163 2.14375 6.79163Z" fill="#CB8252"/>
<path d="M22.7031 3.74622C23.5441 3.74622 24.226 3.06445 24.226 2.22345C24.226 1.38245 23.5441 0.700684 22.7031 0.700684C21.862 0.700684 21.1802 1.38245 21.1802 2.22345C21.1802 3.06445 21.862 3.74622 22.7031 3.74622Z" fill="#95A5A5"/>
</svg>
