<svg width="20" height="22" viewBox="0 0 20 22" fill="none" xmlns="http://www.w3.org/2000/svg">
<path d="M7.84583 17.2169L3.7375 13.1091L5.18569 11.6612L7.84583 14.3107L14.6143 7.54314L16.0625 9.00139L7.84583 17.2169ZM9.9 2.83976C10.1724 2.83976 10.4336 2.94796 10.6263 3.14055C10.8189 3.33314 10.9271 3.59434 10.9271 3.8667C10.9271 4.13906 10.8189 4.40027 10.6263 4.59286C10.4336 4.78544 10.1724 4.89364 9.9 4.89364C9.6276 4.89364 9.36636 4.78544 9.17374 4.59286C8.98113 4.40027 8.87292 4.13906 8.87292 3.8667C8.87292 3.59434 8.98113 3.33314 9.17374 3.14055C9.36636 2.94796 9.6276 2.83976 9.9 2.83976ZM17.0896 2.83976H12.7964C12.365 1.64852 11.2352 0.785889 9.9 0.785889C8.56479 0.785889 7.435 1.64852 7.00363 2.83976H2.71042C2.16562 2.83976 1.64313 3.05615 1.2579 3.44133C0.87267 3.82651 0.65625 4.34892 0.65625 4.89364V19.2708C0.65625 19.8155 0.87267 20.3379 1.2579 20.7231C1.64313 21.1083 2.16562 21.3246 2.71042 21.3246H17.0896C17.6344 21.3246 18.1569 21.1083 18.5421 20.7231C18.9273 20.3379 19.1438 19.8155 19.1438 19.2708V4.89364C19.1438 4.34892 18.9273 3.82651 18.5421 3.44133C18.1569 3.05615 17.6344 2.83976 17.0896 2.83976Z" fill="#1B78CD"/>
</svg>
