<svg width="21" height="21" viewBox="0 0 21 21" fill="none" xmlns="http://www.w3.org/2000/svg">
<path d="M9.46944 4.53788H12.5507L15.9298 1.14898C16.0253 1.05273 16.1389 0.97633 16.264 0.924194C16.3892 0.872057 16.5234 0.845215 16.659 0.845215C16.7946 0.845215 16.9289 0.872057 17.054 0.924194C17.1792 0.97633 17.2928 1.05273 17.3882 1.14898L20.0381 3.80875C20.2294 4.00116 20.3368 4.26144 20.3368 4.53275C20.3368 4.80405 20.2294 5.06433 20.0381 5.25674L17.6861 7.6187H9.46944V9.67258C9.46944 9.94494 9.36123 10.2061 9.16861 10.3987C8.976 10.5913 8.71475 10.6995 8.44235 10.6995C8.16995 10.6995 7.90871 10.5913 7.7161 10.3987C7.52348 10.2061 7.41527 9.94494 7.41527 9.67258V6.59176C7.41527 6.04704 7.63169 5.52462 8.01692 5.13945C8.40215 4.75427 8.92464 4.53788 9.46944 4.53788ZM3.30694 9.67258V13.7803L0.954918 16.132C0.763623 16.3244 0.65625 16.5847 0.65625 16.856C0.65625 17.1273 0.763623 17.3876 0.954918 17.58L3.60479 20.2398C3.70027 20.336 3.81387 20.4124 3.93903 20.4646C4.06419 20.5167 4.19843 20.5435 4.33402 20.5435C4.46961 20.5435 4.60385 20.5167 4.72901 20.4646C4.85417 20.4124 4.96777 20.336 5.06325 20.2398L9.46944 15.8342H13.5778C13.8502 15.8342 14.1114 15.726 14.304 15.5334C14.4966 15.3408 14.6049 15.0796 14.6049 14.8073V13.7803H15.6319C15.9043 13.7803 16.1656 13.6721 16.3582 13.4795C16.5508 13.287 16.659 13.0258 16.659 12.7534V11.7265H17.6861C17.9585 11.7265 18.2197 11.6183 18.4124 11.4257C18.605 11.2331 18.7132 10.9719 18.7132 10.6995V9.67258H11.5236V10.6995C11.5236 11.2442 11.3072 11.7667 10.922 12.1518C10.5367 12.537 10.0142 12.7534 9.46944 12.7534H7.41527C6.87047 12.7534 6.34799 12.537 5.96276 12.1518C5.57753 11.7667 5.3611 11.2442 5.3611 10.6995V7.6187L3.30694 9.67258Z" fill="#1B78CD"/>
</svg>
