<svg width="53" height="53" viewBox="0 0 53 53" fill="none" xmlns="http://www.w3.org/2000/svg">
<path d="M48.9951 20.5353C48.9951 16.869 46.0119 13.8862 42.3451 13.8862H26.3623L25.271 32.0603L26.3623 47.3359H48.9951V20.5353Z" fill="#29376D"/>
<path d="M10.3799 13.8872C6.71315 13.8872 3.72998 16.87 3.72998 20.5362V47.3369H26.3627V13.8872H10.3799Z" fill="#47568C"/>
<path d="M45.9258 20.5353C45.9258 18.5612 44.3195 16.9551 42.345 16.9551H26.3623L25.271 33.1514L26.3623 47.3361H45.9258V20.5353Z" fill="#EAF1FF"/>
<path d="M10.3798 16.9561C8.4054 16.9561 6.79907 18.5622 6.79907 20.5363V47.337H26.3625V16.9561H10.3798Z" fill="#F9F9F9"/>
<path d="M38.8095 46.0234L26.3625 49.22L25.3394 50.8823L26.3625 52.4166H46.159C49.6848 52.4166 52.5532 49.5487 52.5532 46.0234H38.8095Z" fill="#47568C"/>
<path d="M26.3624 46.0234L25.8765 47.6218L26.3624 49.2201H38.8093V46.0234H26.3624Z" fill="#29376D"/>
<path d="M0.171875 46.0234C0.171875 49.5487 3.04026 52.4166 6.56607 52.4166H26.3625V49.22L13.9156 46.0234H0.171875Z" fill="#61729B"/>
<path d="M13.9155 46.0234H26.3624V49.2201H13.9155V46.0234Z" fill="#47568C"/>
<path d="M26.3625 0.0429688L25.0701 14.732L26.3625 35.9124C26.3625 35.9124 35.4254 25.8173 37.7221 22.7601C39.5799 20.2872 40.562 17.3411 40.562 14.2405C40.562 6.41191 34.1921 0.0429688 26.3625 0.0429688Z" fill="#FDAE02"/>
<path d="M12.1631 14.2404C12.1631 17.341 13.1451 20.2871 15.0029 22.7599C17.2996 25.8172 26.3625 35.9124 26.3625 35.9124V0.0429688C18.5329 0.0429688 12.1631 6.41191 12.1631 14.2404Z" fill="#FDCB02"/>
<path d="M38.3975 33.937H26.3623L25.271 36.0499L26.3623 37.0059H38.3975V33.937Z" fill="#F7D586"/>
<path d="M14.3271 33.9373H26.3624V37.0061H14.3271V33.9373Z" fill="#F9E89C"/>
<path d="M26.3623 23.4153H27.9008V13.8269H26.3623L25.271 18.5921L26.3623 23.4153Z" fill="#EAF1FF"/>
<path d="M28.1263 9.92181C28.1263 8.94779 27.3365 8.1582 26.3623 8.1582L25.271 9.8631L26.3623 11.6854C27.3365 11.6854 28.1263 10.8958 28.1263 9.92181Z" fill="#EAF1FF"/>
<path d="M24.8318 13.8269H26.3626V23.4153H24.8318V13.8269Z" fill="#F9F9F9"/>
<path d="M24.5986 9.92187C24.5986 10.8959 25.3884 11.6855 26.3625 11.6855V8.1582C25.3884 8.1582 24.5986 8.94782 24.5986 9.92187Z" fill="#F9F9F9"/>
</svg>
