<svg width="51" height="51" viewBox="0 0 51 51" fill="none" xmlns="http://www.w3.org/2000/svg">
<path d="M43.9655 47.4828C43.9655 49.4253 42.3907 51 40.4482 51H7.03442V3.51724C7.03442 1.57473 8.60916 0 10.5517 0H47.4827C45.5402 0 43.9655 1.57473 43.9655 3.51724V47.4828Z" fill="#C1F4FC"/>
<path d="M47.4828 0C49.4253 0 51.0001 1.57473 51.0001 3.51724V5.27586H43.9656V3.51724C43.9656 1.57473 45.5403 0 47.4828 0Z" fill="#E8594A"/>
<path d="M39.6877 36.4447C35.855 35.9529 31.9768 35.9271 28.138 36.3682C26.6634 36.5362 25.1958 36.7666 23.7414 37.0717V37.8103L16.7069 35.1724L10.8041 39.3931L10.5518 39.5689L16.7069 43.9655L23.7414 41.3275V42.0653C24.6207 42.2491 25.5 42.3994 26.3793 42.5331C26.9641 42.621 27.5497 42.7019 28.138 42.7687C31.9768 43.2098 35.855 43.1841 39.6877 42.6922L43.9655 42.1409V36.9969L39.6877 36.4447Z" fill="#73BEC9"/>
<path d="M0 45.7241H36.931V47.4827C36.931 49.4252 38.5058 51 40.4483 51H3.51724C1.57473 51 0 49.4252 0 47.4827V45.7241Z" fill="#E8594A"/>
<path d="M17.5862 7.03442V9.84821C17.5864 14.0178 20.042 17.7963 23.8521 19.4898L25.5 20.2241L27.1478 19.4916C30.9586 17.7978 33.4142 14.0184 33.4138 9.84821V7.03442C30.56 7.03442 27.7831 6.10883 25.5 4.39648C23.2168 6.10883 20.44 7.03442 17.5862 7.03442Z" fill="#4398D1"/>
<path d="M26.3792 7.91382H24.6206V9.67244H26.3792V7.91382Z" fill="#5EA9DB"/>
<path d="M29.0172 14.0688H27.2585V15.8275H29.0172V14.0688Z" fill="#5EA9DB"/>
<path d="M21.9827 9.67236H20.2241V11.431H21.9827V9.67236Z" fill="#5EA9DB"/>
<path d="M30.776 9.67236H29.0173V11.431H30.776V9.67236Z" fill="#5EA9DB"/>
<path d="M23.7413 14.0688H21.9827V15.8275H23.7413V14.0688Z" fill="#5EA9DB"/>
<path d="M38.6896 23.7415H12.3103V25.5001H38.6896V23.7415Z" fill="#73BEC9"/>
<path d="M21.9827 28.1379H12.3103V29.8966H21.9827V28.1379Z" fill="#73BEC9"/>
<path d="M38.6897 28.1379H23.7415V29.8966H38.6897V28.1379Z" fill="#73BEC9"/>
<path d="M18.4655 19.3447H12.3103V21.1033H18.4655V19.3447Z" fill="#73BEC9"/>
<path d="M38.6896 19.3447H32.5344V21.1033H38.6896V19.3447Z" fill="#73BEC9"/>
<path d="M51.0001 39.4749L39.6877 40.9346C34.3747 41.6203 28.9841 41.4081 23.7415 40.3068V35.314C28.9841 34.2127 34.3747 34.0005 39.6877 34.6862L51.0001 36.1459V39.4749Z" fill="#7A3E1A"/>
<path d="M39.0415 38.2499C33.9565 38.9028 28.8044 38.8252 23.7415 38.0195V40.3057C28.9841 41.4071 34.3747 41.6193 39.6877 40.9336L51.0001 39.4748V36.7041L39.0415 38.2499Z" fill="#703918"/>
<path d="M23.7414 36.0518L16.7069 33.4138L10.5518 37.8104L16.7069 42.2069L23.7414 39.569V36.0518Z" fill="#FDBB3D"/>
<path d="M10.8041 37.6344L10.5518 37.8103L16.7069 42.2068L23.7414 39.5689V37.5254C19.437 37.8663 15.1137 37.9027 10.8041 37.6344Z" fill="#FDAF33"/>
<path d="M16.7069 39.569C15.7356 39.569 14.9482 38.7817 14.9482 37.8104C14.9482 36.8391 15.7356 36.0518 16.7069 36.0518C17.6782 36.0518 18.4655 36.8391 18.4655 37.8104C18.4655 38.7817 17.6782 39.569 16.7069 39.569Z" fill="#F58616"/>
<path d="M16.7069 36.9312H11.7828L10.5518 37.8105L11.7828 38.6898H16.7069V36.9312Z" fill="#F58616"/>
<path d="M26.3794 34.8462V40.7745C26.9641 40.8624 27.5506 40.9442 28.138 41.011V34.6096C27.5506 34.6764 26.9641 34.7565 26.3794 34.8462Z" fill="#D6D6D4"/>
</svg>
