<svg width="35" height="54" viewBox="0 0 35 54" fill="none" xmlns="http://www.w3.org/2000/svg">
<path d="M30.4634 25.7155L29.4431 25.5523L22.5228 24.4878L20.8194 30.8749L17.5189 27.6813L14.2185 30.8749L12.515 24.4878L5.59477 25.5523L4.5744 25.7155C2.09524 26.1121 0.271484 28.2506 0.271484 30.761V47.5877C0.271484 49.0575 1.46315 50.249 2.93313 50.249C4.4031 50.249 5.59477 49.0575 5.59477 47.5877V53.3361H34.7664V30.761C34.7664 28.2506 32.9426 26.1121 30.4634 25.7155Z" fill="#6E83B7"/>
<path d="M21.0321 21.2944V23.317L17.5187 27.6815L14.0054 23.317V21.2944H21.0321Z" fill="#FFD3B3"/>
<path d="M14.0396 22.7195C16.2437 23.7538 18.7939 23.7538 20.998 22.7195V21.2964H14.0396V22.7195Z" fill="#FCB98B"/>
<path d="M10.2793 6.49756V15.0148C10.2793 19.0126 13.5207 22.2535 17.519 22.2535C21.5173 22.2535 24.7587 19.0126 24.7587 15.0148V6.49756H10.2793Z" fill="#FFD3B3"/>
<path d="M25.8234 14.9072H24.7588V10.6492H25.8234C26.4113 10.6492 26.8879 11.1258 26.8879 11.7137V13.8427C26.8879 14.4306 26.4113 14.9072 25.8234 14.9072Z" fill="#FFD3B3"/>
<path d="M9.2146 14.9072H10.2793V10.6492H9.2146C8.62657 10.6492 8.1499 11.1258 8.1499 11.7137V13.8427C8.1499 14.4306 8.62657 14.9072 9.2146 14.9072Z" fill="#FFD3B3"/>
<path d="M16.9863 45.7778H18.051V53.3359H16.9863V45.7778Z" fill="#466089"/>
<path d="M26.9945 49.823V50.8876H20.6064V49.823H26.9945Z" fill="#466089"/>
<path d="M14.4314 49.823V50.8876H8.04346V49.823H14.4314Z" fill="#466089"/>
<path d="M20.8192 30.8749L17.5187 27.6814L14.2183 30.8749L17.5187 46.7362L20.8192 30.8749Z" fill="#D3D3D3"/>
<path d="M17.5188 31.5135H18.264L19.1775 29.2864L17.5188 27.6814L15.8601 29.2864L16.7736 31.5135H17.5188Z" fill="#FFB0AA"/>
<path d="M14.0056 23.3169L12.5151 24.4878L14.2186 30.8749L17.5189 27.6814L14.0056 23.3169Z" fill="#EDEFF1"/>
<path d="M21.0322 23.3169L22.5227 24.4878L20.8192 30.8749L17.5188 27.6814L21.0322 23.3169Z" fill="#EDEFF1"/>
<path d="M19.1159 0.962158H15.6025C12.0746 0.962158 9.2146 3.82174 9.2146 7.3492V10.6492H10.2793V15.333L11.8088 10.6492H16.4543C18.8062 10.6492 20.7129 8.74275 20.7129 6.39115V2.55892C20.7129 1.67708 19.9979 0.962158 19.1159 0.962158Z" fill="#6E83B7"/>
<path d="M21.5646 2.55884H20.7129V6.39109C20.7129 8.01128 21.6324 9.49106 23.0852 10.2088L24.7586 15.333V10.6491H25.8232V6.81689C25.8232 4.46528 23.9165 2.55884 21.5646 2.55884Z" fill="#6E83B7"/>
<path d="M18.2642 31.5137L19.116 39.0717L17.5189 46.7362L15.9219 39.0717L16.7736 31.5137H18.2642Z" fill="#FFB0AA"/>
<path d="M18.3242 32.0459L18.2643 31.5137H16.7736L16.7136 32.0459H18.3242Z" fill="#FF7B7B"/>
<path d="M28.3784 34.1748H29.443V53.3361H28.3784V34.1748Z" fill="#466089"/>
<path d="M6.65942 53.3361H5.59473V34.1748H6.65942V53.3361Z" fill="#466089"/>
<path d="M22.5228 24.4878L25.9298 29.3845L22.5228 36.4103L24.4393 38.3264L17.5188 46.736L20.8193 30.8748L22.5228 24.4878Z" fill="#466089"/>
<path d="M12.515 24.4878L9.10815 29.3845L12.515 36.4103L10.5986 38.3264L17.5188 46.736L14.2184 30.8748L12.515 24.4878Z" fill="#466089"/>
<path d="M5.59473 38.0071H0.271484V53.3361H5.59473V38.0071Z" fill="#6E83B7"/>
</svg>
