<svg width="58" height="51" viewBox="0 0 58 51" fill="none" xmlns="http://www.w3.org/2000/svg">
<g clip-path="url(#clip0)">
<path d="M57.9863 50.0126L53.4296 25.2851C53.3842 25.0383 53.2288 24.8245 53.0061 24.7025L41.5373 18.4194C41.3884 18.3378 41.2215 18.3053 41.0576 18.3178L43.1441 44.8302L43.0743 44.861L56.7999 50.9262C56.9116 50.9754 57.0303 50.9997 57.1484 50.9997C57.3355 50.9997 57.5208 50.9391 57.6732 50.8216C57.9222 50.6302 58.0426 50.3186 57.9863 50.0126Z" fill="#44C868"/>
<path d="M29.0001 24.426L17.2703 18.4084C17.1297 18.3362 16.9739 18.3067 16.8204 18.3169C16.861 18.3144 16.9019 18.3147 16.9425 18.3178L14.856 44.8302L28.6515 50.9263C28.7628 50.9754 28.8817 50.9998 29.0001 50.9998V24.426Z" fill="#44C868"/>
<path d="M16.9424 18.318C16.7784 18.3055 16.6116 18.338 16.4627 18.4196L4.99377 24.7027C4.77106 24.8246 4.61564 25.0383 4.57021 25.2852L0.0136932 50.0127C-0.042721 50.3187 0.0778105 50.6302 0.32669 50.8219C0.47928 50.9394 0.664495 51 0.85141 51C0.969562 51 1.08839 50.9757 1.19998 50.9264L14.8508 44.8943L16.9424 18.318Z" fill="#4CE166"/>
<path d="M41.0576 18.3174C40.9447 18.326 40.8332 18.3555 40.7297 18.4087L29 24.4262V51C29 51 29 51 29.0001 51C29.1185 51 29.2374 50.9757 29.3487 50.9265L43.1442 44.8304L41.0576 18.3174Z" fill="#4CE166"/>
<path d="M3.18929 32.7789L2.26367 37.8021L15.9701 30.6714L16.2883 26.6279L16.341 25.9573L3.18929 32.7789Z" fill="#FFDB56"/>
<path d="M16.0934 29.1035L15.9701 30.6714L2.26369 37.8021L0.0136932 50.0127C-0.042721 50.3187 0.0778105 50.6302 0.32669 50.8219C0.47928 50.9394 0.664495 51 0.85141 51C0.969562 51 1.08839 50.9758 1.19998 50.9264L14.8508 44.8943L16.0934 29.1035Z" fill="#A8EEFC"/>
<path d="M29.0033 27.7407L16.341 25.9573L15.97 30.6714L28.9999 50.1622V43.0748L21.2246 31.0154L29.0033 31.9319V27.7407Z" fill="#FFBB24"/>
<path d="M52.1033 24.2081L46.5939 21.1897L41.3782 22.3901L41.4434 23.2198L41.701 26.4929L52.1033 24.2081Z" fill="#FFBB24"/>
<path d="M42.1636 32.3708L41.6696 26.0945L41.3782 22.3901L29.0034 27.7406V31.9318L37.0867 28.4695L42.1636 32.3708Z" fill="#FFDB56"/>
<path d="M57.9865 50.0124L56.842 43.8012L41.7012 26.4927L42.1638 32.3705L57.6913 50.806C57.9274 50.6133 58.0415 50.3107 57.9865 50.0124Z" fill="#FFBB24"/>
<path d="M29.0546 0C22.4885 0 17.1465 5.25745 17.1465 11.7197C17.1465 15.7172 19.0733 20.0091 22.8735 24.4759C25.6647 27.7567 28.4179 29.8668 28.5338 29.955C28.6872 30.0718 28.8709 30.1302 29.0547 30.1302C29.2385 30.1302 29.4223 30.0718 29.5757 29.955C29.6915 29.8668 32.4448 27.7567 35.236 24.4759C39.0362 20.0091 40.963 15.7173 40.963 11.7197C40.9628 5.25745 35.6208 0 29.0546 0ZM33.4647 11.7196C33.4647 14.1166 31.4902 16.0599 29.0546 16.0599C26.6191 16.0599 24.6446 14.1167 24.6446 11.7196C24.6446 9.32255 26.6191 7.37938 29.0546 7.37938C31.4902 7.37938 33.4647 9.32266 33.4647 11.7196Z" fill="#FE4D4D"/>
<path d="M29.0545 0C28.5341 0 28.0215 0.033251 27.5186 0.0972982C33.362 0.841206 37.8908 5.76961 37.8908 11.7197C37.8908 15.7172 35.964 20.0091 32.1638 24.4759C30.3688 26.5856 28.5909 28.2101 27.5187 29.1253C28.1138 29.6332 28.4924 29.9236 28.5337 29.955C28.6871 30.0718 28.8708 30.1302 29.0547 30.1302C29.2384 30.1302 29.4223 30.0718 29.5756 29.955C29.6914 29.8668 32.4447 27.7567 35.2359 24.4759C39.0361 20.0091 40.9629 15.7173 40.9629 11.7197C40.9627 5.25745 35.6207 0 29.0545 0Z" fill="#E7343F"/>
<path d="M29.3487 50.9265L34.4786 48.6597L29 43.075V51.0001C29 51.0001 29 51.0001 29.0001 51.0001C29.1185 51.0001 29.2373 50.9759 29.3487 50.9265Z" fill="#FFDB56"/>
<path d="M53.4296 25.2852C53.3842 25.0384 53.2288 24.8246 53.0061 24.7026L52.1032 24.208L41.7009 26.4928L56.8417 43.8013L53.4296 25.2852Z" fill="#1B78CD"/>
<path d="M28.9999 50.9999V50.1622L15.9701 30.6714L14.8557 44.8304L28.6512 50.9265C28.7626 50.9757 28.8814 50.9999 28.9999 50.9999Z" fill="#1B78CD"/>
</g>
<defs>
<clipPath id="clip0">
<rect width="58" height="51" fill="white"/>
</clipPath>
</defs>
</svg>
