<svg width="54" height="53" viewBox="0 0 54 53" fill="none" xmlns="http://www.w3.org/2000/svg">
<path d="M32.5783 15.2089C32.7659 15.2334 32.9445 15.2812 33.094 15.4057C33.0757 15.4661 33.0217 15.5426 33.0835 15.5859C33.2018 15.669 33.2983 15.5695 33.3967 15.5158C33.5835 15.5422 33.7626 15.5886 33.9121 15.7127C33.8938 15.773 33.84 15.8495 33.9017 15.8929C34.0198 15.9762 34.1163 15.8763 34.215 15.8233C34.4018 15.8492 34.581 15.8955 34.7304 16.0196C34.7192 16.5085 34.996 16.1082 35.1299 16.149C35.9861 16.477 36.8422 16.8051 37.6984 17.1331C37.8566 17.3295 37.9841 17.6085 38.3072 17.3577C38.389 17.355 38.466 17.3641 38.5168 17.44C38.675 17.6364 38.8026 17.9154 39.1257 17.6645C39.2074 17.6619 39.2844 17.671 39.3353 17.7469C39.4934 17.9432 39.621 18.2224 39.9441 17.9712C40.0259 17.9685 40.1029 17.9781 40.1535 18.0541C40.3119 18.25 40.4396 18.5294 40.7625 18.2781C40.8444 18.2753 40.9213 18.2849 40.9719 18.361C41.1391 18.6382 41.3462 18.8004 41.677 18.6051C41.7148 18.6261 41.7525 18.647 41.7903 18.6679C41.9576 18.9449 42.1646 19.1073 42.4955 18.912C42.5332 18.933 42.571 18.9538 42.6087 18.9748C42.776 19.2519 42.9831 19.4142 43.3139 19.2189C46.1974 20.297 49.0809 21.3747 51.9636 22.4547C52.0241 22.4774 52.0751 22.5261 52.1304 22.5627C52.1106 22.9999 52.3918 23.0723 52.7389 23.0649C52.8391 23.206 52.9392 23.347 53.0393 23.4881C53.0393 24.9543 53.0393 26.4205 53.0393 27.8867C52.9623 27.989 52.8948 28.0913 53.0393 28.1936C53.0393 28.2959 53.0393 28.3982 53.0393 28.5005C52.6791 29.3992 52.0011 29.7304 51.0612 29.6446C50.6742 29.6092 50.2809 29.6441 49.8904 29.647C49.6655 29.8049 49.4061 29.7913 49.1511 29.7913C41.9615 29.7929 34.7721 29.7931 27.5825 29.7913C27.3953 29.7913 27.2074 29.7945 27.024 29.7516C26.9635 29.7368 26.9066 29.7106 26.8549 29.6757C26.6763 29.4783 26.7127 29.2309 26.7107 28.9968C26.7039 28.2141 26.6987 27.4313 26.7121 26.649C26.7186 26.2692 26.5725 26.1195 26.188 26.0643C24.2323 25.7841 22.7185 24.0108 22.7261 22.0476C22.7337 20.08 24.3219 18.3111 26.3009 18.0656C26.5063 18.0402 26.7107 18.017 26.8718 18.1917C27.0476 18.4155 26.9941 18.6806 26.9947 18.931C26.9994 20.9767 26.9961 23.0224 26.9978 25.068C26.9985 25.8037 27.1308 25.9066 27.8487 25.6838C28.6892 25.4229 29.3703 24.9321 29.8753 24.2042C30.011 24.0086 30.1125 23.7892 30.2791 23.6157C30.5682 23.6122 30.7074 23.4729 30.7767 23.1809C30.8345 22.9373 30.7772 22.8068 30.5701 22.7088C30.6473 21.9519 30.4502 21.2316 30.2781 20.5084C30.3658 20.2875 30.535 20.0389 30.1022 19.9955C29.8253 19.9029 29.7156 19.6363 29.5325 19.4463C29.1928 19.0936 28.7399 18.8934 28.3732 18.5783C28.3436 18.2523 28.1223 18.5367 28.0112 18.4671C27.5882 18.3799 27.1189 18.4421 26.7817 18.0815C26.7291 17.9911 26.702 17.892 26.7016 17.7905C26.6961 16.4398 26.6471 15.0888 26.7264 13.7392C26.8073 13.5123 26.9889 13.3404 27.0755 13.1152C27.5845 13.0407 27.9872 13.278 28.3753 13.5587C28.5842 13.6628 28.7932 13.7669 29.0021 13.871C28.9839 13.9314 28.9298 14.0082 28.9916 14.0512C29.1099 14.134 29.2063 14.0351 29.3043 13.9799C29.4915 14.0065 29.6708 14.0537 29.8205 14.1779C29.8023 14.2382 29.7482 14.3151 29.81 14.3581C29.9284 14.4409 30.0247 14.342 30.1227 14.2868C30.3097 14.3134 30.4891 14.3603 30.6385 14.485C30.6201 14.5453 30.5662 14.6218 30.628 14.6652C30.7463 14.7483 30.8428 14.6487 30.9412 14.595C31.1288 14.6196 31.3074 14.6674 31.4569 14.7918C31.4386 14.8522 31.3847 14.9287 31.4465 14.9721C31.5647 15.0551 31.6612 14.9556 31.7596 14.9019C31.9472 14.9265 32.1259 14.9742 32.2753 15.0987C32.257 15.1591 32.2031 15.2356 32.2649 15.279C32.3833 15.3622 32.4797 15.2626 32.5783 15.2089Z" fill="#8EA6BE"/>
<path d="M25.3204 13.5611C25.3191 9.91868 25.3402 6.2759 25.3013 2.63384C25.2913 1.68148 25.5646 0.987422 26.4404 0.574463C26.5767 0.574463 26.7132 0.574463 26.8496 0.574463C27.0245 0.770867 27.0123 1.01453 27.0126 1.25124C27.0164 5.17706 27.0137 9.10299 27.0162 13.0279C27.0038 13.0887 26.9773 13.1442 26.9388 13.1933C26.538 13.3688 26.1002 13.4376 25.6969 13.611C25.5698 13.6657 25.4333 13.6725 25.3204 13.5611Z" fill="#607882"/>
<path d="M26.9571 13.1467C26.8106 12.9519 26.8504 12.7249 26.8504 12.5067C26.8492 8.52935 26.8495 4.55186 26.8495 0.574463C26.9858 0.574463 27.1223 0.574463 27.2587 0.574463C27.7192 0.808511 28.1391 1.08389 28.3148 1.60876C28.5163 1.75913 28.542 1.98008 28.543 2.20441C28.5542 4.55319 28.551 6.90206 28.5448 9.25093C28.5443 9.43936 28.5297 9.62676 28.4005 9.78143C28.3921 11.0406 28.3837 12.2997 28.3754 13.5588C27.9173 13.4937 27.5375 13.1619 27.0575 13.1713C27.0165 13.1934 26.9835 13.1837 26.9571 13.1467Z" fill="#495959"/>
<path d="M53.0391 28.1929C52.9792 28.2061 52.8955 28.2731 52.8636 28.1977C52.7957 28.0368 52.9139 27.9538 53.0391 27.8867C53.0391 27.9888 53.0391 28.0909 53.0391 28.1929Z" fill="#8EA6BE"/>
<path d="M26.846 29.6299C34.3916 29.6291 41.9371 29.6283 49.4827 29.6284C49.6186 29.6284 49.7546 29.6405 49.8906 29.647C49.8832 29.8681 49.8691 30.0892 49.8691 30.3102C49.868 37.26 49.8683 44.2099 49.868 51.1596C49.8679 52.3649 49.2909 52.9511 48.0981 52.948C46.1565 52.9429 44.215 52.9323 42.2734 52.9242C42.0822 52.6671 42.1441 52.3672 42.1438 52.0834C42.1392 48.2476 42.1444 44.4119 42.1379 40.5761C42.1367 39.8232 42.0722 39.0776 41.6939 38.396C41.0644 37.2619 39.7569 36.7018 38.458 37.0184C37.1906 37.3273 36.3215 38.4123 36.3189 39.7327C36.3109 43.8583 36.3175 47.9839 36.3135 52.1094C36.3132 52.3938 36.3692 52.6945 36.1633 52.9446C34.0746 52.9389 31.9857 52.9332 29.897 52.9273C29.7025 52.6722 29.7645 52.3725 29.7643 52.0894C29.7602 47.2404 29.7614 42.3914 29.7612 37.5424C29.7612 37.3212 29.7667 37.0998 29.7524 36.879C29.646 35.2348 28.8796 34.2866 27.2939 33.8382C27.1209 33.7554 26.9041 33.7562 26.7819 33.5744C26.6414 33.2697 26.6904 32.9446 26.688 32.6269C26.6818 31.8512 26.6813 31.0754 26.6887 30.2997C26.6909 30.0673 26.6612 29.8218 26.846 29.6299Z" fill="#B8C8D8"/>
<path d="M26.846 29.6299C26.8453 30.9562 26.8447 32.2827 26.844 33.609C26.7142 33.7969 26.5069 33.8229 26.3079 33.8661C24.7773 34.1982 23.9404 35.2275 23.9396 36.7983C23.9368 41.8871 23.9397 46.9759 23.936 52.0647C23.9358 52.3651 23.998 52.6831 23.7813 52.9484C21.7006 52.9484 19.6199 52.9484 17.5392 52.9484C17.3324 52.6996 17.3858 52.3995 17.3855 52.1151C17.382 48.0291 17.3776 43.9431 17.3867 39.8571C17.3893 38.6644 16.881 37.7779 15.8311 37.25C14.8076 36.7353 13.7823 36.8269 12.8267 37.4667C12.1838 37.8973 11.8371 38.5338 11.6853 39.2764C11.5899 39.7433 11.5547 40.2181 11.5554 40.6976C11.5606 44.4943 11.5598 48.2908 11.5555 52.0874C11.5552 52.3711 11.6158 52.6701 11.43 52.9287C9.36884 52.9351 7.30749 52.9547 5.24646 52.9408C4.53267 52.9359 3.87229 52.2296 3.8326 51.5134C3.82503 51.3775 3.83117 51.2408 3.83117 51.1046C3.83117 44.1883 3.82442 37.272 3.84447 30.3558C3.846 29.8203 3.69132 29.682 3.18511 29.7131C2.8249 29.7352 2.43972 29.8311 2.08789 29.6335C2.36023 29.3822 2.69988 29.462 3.01447 29.4618C10.0684 29.4569 17.1223 29.4581 24.1764 29.4581C24.8408 29.4581 25.5054 29.4545 26.1699 29.4604C26.4072 29.4625 26.6517 29.4491 26.846 29.6294V29.6299Z" fill="#E5EBF1"/>
<path d="M26.8456 29.6296C18.593 29.631 10.3403 29.6323 2.0876 29.6337C1.10619 29.4517 0.662182 28.935 0.660136 27.9612C0.657374 26.6827 0.657783 25.4042 0.660034 24.1256C0.66167 23.2333 1.02598 22.7368 1.84667 22.4288C6.57571 20.6535 11.3018 18.8704 16.0298 17.0922C19.0544 15.9548 22.0804 14.8217 25.1051 13.6847C25.1815 13.656 25.2488 13.6031 25.3203 13.5615C25.8524 13.528 26.2862 13.112 26.8418 13.1704C26.9631 13.2983 26.9539 13.4305 26.8552 13.5659C26.8536 15.1008 26.852 16.6357 26.8504 18.1706L26.8507 18.1703C24.6548 18.2219 23.0182 19.692 22.885 21.9404C22.762 24.0165 24.4378 25.8265 26.4218 25.9396C26.7624 25.959 26.8562 26.1032 26.8529 26.4155C26.8419 27.4868 26.8468 28.5582 26.8456 29.6296Z" fill="#B8C8D8"/>
<path d="M36.1634 52.9446C36.1548 52.1278 36.1395 51.311 36.1388 50.4942C36.1363 46.9516 36.1402 43.4091 36.1372 39.8667C36.1361 38.5848 36.6886 37.6302 37.8429 37.0775C38.989 36.5287 40.1045 36.6673 41.1063 37.4389C42.003 38.1295 42.2735 39.1209 42.2744 40.2018C42.2779 44.4426 42.2743 48.6834 42.2734 52.9241C40.2367 52.9309 38.2001 52.9377 36.1634 52.9446Z" fill="#607882"/>
<path d="M11.4298 52.9287C11.4257 48.6357 11.3996 44.3424 11.4284 40.0497C11.44 38.3346 12.3387 37.2108 13.8194 36.8482C15.7018 36.3872 17.5431 37.7802 17.5482 39.7119C17.5595 44.124 17.5438 48.5362 17.539 52.9484C15.5026 52.9418 13.4662 52.9353 11.4298 52.9287Z" fill="#8EA6BE"/>
<path d="M23.781 52.9483C23.7754 50.462 23.7674 47.9756 23.7649 45.4893C23.762 42.7131 23.7643 39.9369 23.7643 37.1607C23.7643 35.0165 24.5128 34.0876 26.5925 33.6527C26.6757 33.6353 26.7601 33.6234 26.8439 33.6089C26.9886 33.6228 27.1462 33.5745 27.2684 33.6971C26.9856 34.0034 27.0156 34.3847 27.0156 34.7581C27.0151 40.5058 27.0167 46.2536 27.0119 52.0014C27.0116 52.3166 27.0873 52.6532 26.8569 52.9338C25.8315 52.9387 24.8063 52.9435 23.781 52.9483Z" fill="#8EA6BE"/>
<path d="M26.8569 52.9337C26.8544 46.6717 26.8542 40.4098 26.8433 34.1479C26.8428 33.8225 26.935 33.6675 27.2683 33.6972C28.8345 33.9396 29.8952 35.2057 29.8979 36.9003C29.9064 42.2426 29.8985 47.5849 29.8968 52.9273C28.8836 52.9294 27.8702 52.9316 26.8569 52.9337Z" fill="#607882"/>
<path d="M28.4004 9.7813C28.3949 7.2928 28.3894 4.80419 28.3835 2.31569C28.383 2.07786 28.4034 1.83777 28.3145 1.60853C30.7856 1.60495 33.2568 1.59411 35.7279 1.60127C36.661 1.60393 37.2859 2.24654 37.2913 3.19133C37.3008 4.84429 37.2996 6.49736 37.2922 8.15043C37.2878 9.14738 36.6592 9.77608 35.6608 9.77874C33.2407 9.78508 30.8206 9.78109 28.4004 9.7813Z" fill="#FE4D4D"/>
<path d="M52.739 23.0651C52.3864 23.5621 52.2491 22.9733 52.0309 22.894C51.8457 22.8267 51.8695 22.6122 52.1304 22.563C52.4197 22.6256 52.589 22.8337 52.739 23.0651Z" fill="#8EA6BE"/>
<path d="M41.6772 18.605C41.5649 18.7508 41.4579 18.9382 41.2371 18.8516C41.0298 18.7703 40.9429 18.5882 40.972 18.3608C41.2295 18.3776 41.4446 18.5162 41.6772 18.605Z" fill="#8EA6BE"/>
<path d="M42.4957 18.9121C42.3834 19.0578 42.2764 19.2453 42.0558 19.1587C41.8485 19.0774 41.7615 18.8953 41.7906 18.668C42.0485 18.683 42.262 18.8265 42.4957 18.9121Z" fill="#8EA6BE"/>
<path d="M43.3141 19.2189C43.2019 19.3647 43.0948 19.5521 42.8742 19.4655C42.6669 19.3842 42.5798 19.2021 42.609 18.9749C42.867 18.9895 43.0805 19.1333 43.3141 19.2189Z" fill="#8EA6BE"/>
<path d="M38.3073 17.3575C38.2897 17.531 38.211 17.6756 38.0219 17.6358C37.7672 17.5822 37.6755 17.3852 37.6985 17.1331C37.923 17.1491 38.1187 17.2439 38.3073 17.3575Z" fill="#8EA6BE"/>
<path d="M39.1257 17.6645C39.1081 17.8379 39.0294 17.9825 38.8402 17.9427C38.5856 17.8891 38.4939 17.6922 38.5168 17.4399C38.7414 17.4561 38.937 17.5508 39.1257 17.6645Z" fill="#8EA6BE"/>
<path d="M39.944 17.9711C39.9265 18.1446 39.8479 18.2894 39.6587 18.2496C39.4038 18.1961 39.3122 17.9991 39.3352 17.7468C39.5597 17.763 39.7551 17.8582 39.944 17.9711Z" fill="#8EA6BE"/>
<path d="M40.7625 18.2779C40.745 18.4514 40.6665 18.596 40.4773 18.5563C40.2225 18.5029 40.1308 18.306 40.1535 18.054C40.3773 18.0721 40.5739 18.1642 40.7625 18.2779Z" fill="#8EA6BE"/>
<path d="M35.1299 16.1489C34.9945 16.3171 34.8736 16.5332 34.6082 16.3485C34.5294 16.2937 34.4283 16.2206 34.4691 16.1078C34.511 15.9918 34.6359 16.0305 34.7305 16.0195C34.8637 16.0627 34.9968 16.1058 35.1299 16.1489Z" fill="#8EA6BE"/>
<path d="M30.1229 14.2872C30.0669 14.5803 29.9223 14.6735 29.6654 14.4803C29.6011 14.432 29.5192 14.3651 29.5565 14.2703C29.6035 14.1503 29.7255 14.1906 29.8207 14.1782C29.9215 14.2145 30.0223 14.2509 30.1229 14.2872Z" fill="#8EA6BE"/>
<path d="M30.9413 14.5954C30.9191 14.7946 30.8254 14.9222 30.6093 14.8684C30.4933 14.8395 30.3781 14.7432 30.3726 14.6259C30.3641 14.445 30.5327 14.5042 30.6386 14.4854C30.7395 14.5221 30.8403 14.5587 30.9413 14.5954Z" fill="#8EA6BE"/>
<path d="M31.7597 14.9023C31.7375 15.1014 31.6438 15.2289 31.4277 15.1751C31.3117 15.1463 31.1965 15.05 31.191 14.9328C31.1825 14.7519 31.3511 14.8111 31.457 14.7922C31.5579 14.829 31.6587 14.8656 31.7597 14.9023Z" fill="#8EA6BE"/>
<path d="M32.5783 15.2092C32.5561 15.4083 32.4624 15.5359 32.2463 15.4821C32.1303 15.4532 32.0151 15.3569 32.0096 15.2397C32.0011 15.0588 32.1697 15.1179 32.2756 15.0991C32.3765 15.1358 32.4773 15.1725 32.5783 15.2092Z" fill="#8EA6BE"/>
<path d="M33.3966 15.5161C33.3744 15.7152 33.2807 15.8428 33.0647 15.789C32.9487 15.7601 32.8335 15.6638 32.8279 15.5465C32.8195 15.3657 32.988 15.4248 33.0939 15.406C33.1948 15.4427 33.2956 15.4793 33.3966 15.5161Z" fill="#8EA6BE"/>
<path d="M34.215 15.8235C34.1926 16.0225 34.0986 16.1496 33.8828 16.0957C33.7669 16.0668 33.6518 15.9706 33.6463 15.8534C33.6378 15.6726 33.8062 15.7316 33.912 15.7129C34.013 15.7497 34.114 15.7866 34.215 15.8235Z" fill="#8EA6BE"/>
<path d="M29.3045 13.9803C29.2484 14.2734 29.1039 14.3666 28.847 14.1735C28.7827 14.1251 28.7009 14.0583 28.7381 13.9634C28.7852 13.8434 28.9071 13.8837 29.0023 13.8713C29.1031 13.9077 29.2038 13.944 29.3045 13.9803Z" fill="#8EA6BE"/>
<path d="M30.4307 23.5921C29.8343 24.7443 28.9714 25.5766 27.6745 25.8883C26.926 26.0681 26.8482 26.0096 26.8484 25.2605C26.849 22.8972 26.85 20.5338 26.8509 18.1703L26.8506 18.1706C27.3074 18.1467 27.7319 18.3275 28.1766 18.3798C28.2613 18.3784 28.335 18.4008 28.3839 18.4763C29.0468 18.8494 29.6403 19.3056 30.105 19.9157C30.2714 20.0423 30.402 20.1857 30.3412 20.4188C30.6306 21.1773 30.826 21.9481 30.6476 22.7676C30.761 23.0912 30.6709 23.3614 30.4307 23.5921Z" fill="#607882"/>
<path d="M30.4307 23.5919C30.5029 23.317 30.5751 23.0423 30.6476 22.7673C30.6943 22.7207 30.7337 22.6609 30.7893 22.6301C30.8998 22.5688 30.9631 22.6712 30.9602 22.7394C30.9448 23.102 30.8918 23.4645 30.6527 23.7531C30.5856 23.834 30.4671 23.7656 30.439 23.6412C30.4352 23.6249 30.4333 23.6083 30.4307 23.5919Z" fill="#8EA6BE"/>
<path d="M30.3411 20.4186C30.2624 20.2508 30.1838 20.0831 30.105 19.9154C30.2843 19.9125 30.4959 19.8557 30.5622 20.1009C30.6085 20.2725 30.5256 20.3897 30.3411 20.4186Z" fill="#8EA6BE"/>
<path d="M26.8552 13.5646C26.8507 13.4331 26.8463 13.3015 26.8418 13.17C26.8801 13.1623 26.9184 13.1546 26.9568 13.1467C26.9901 13.1548 27.0235 13.163 27.0569 13.1711C27.1965 13.4084 27.1172 13.5333 26.8552 13.5646Z" fill="#8EA6BE"/>
<path d="M28.3833 18.4755C28.3 18.4742 28.225 18.4553 28.1765 18.3792C28.2227 18.2944 28.2886 18.2701 28.37 18.326C28.4291 18.3666 28.4582 18.4188 28.3833 18.4755Z" fill="#8EA6BE"/>
</svg>
