<svg width="40" height="51" viewBox="0 0 40 51" fill="none" xmlns="http://www.w3.org/2000/svg">
<g clip-path="url(#clip0)">
<path d="M40.0001 0V41.3577H38.4708L23.1841 43.0441L3.05903 45.2635V45.4319H0.000488281V5.56796C0.000488281 2.498 2.55641 0 5.69865 0H40.0001Z" fill="#886746"/>
<path d="M7.26882 0H5.69888C2.55633 0 0 2.49761 0 5.56796V45.4319H3.05854V45.2631L7.26882 44.7989V0Z" fill="#BB997B"/>
<path d="M38.4708 41.3577V49.5058H5.69868C3.39641 49.5058 1.52979 47.6821 1.52979 45.432C1.52979 44.3063 1.99693 43.2881 2.75116 42.5511C3.5054 41.8141 4.54765 41.3578 5.69858 41.3578H38.4708V41.3577Z" fill="#DEE1F8"/>
<path d="M40 0V41.3577H38.4708L23.1841 43.0441V0H40Z" fill="#715539"/>
<path d="M23.1838 41.3577H38.4705V49.5058H23.1838V41.3577Z" fill="#C3C7F5"/>
<path d="M3.05903 45.4321C3.05903 46.8543 4.24258 48.0118 5.69865 48.0118H40.0001V51.0001H5.69865C2.55651 51.0001 0.000488281 48.5021 0.000488281 45.4321C0.000488281 42.3622 2.55641 39.8638 5.69865 39.8638H40.0001V42.8521H5.69865C4.24258 42.852 3.05903 44.0095 3.05903 45.4321Z" fill="#BB997B"/>
<path d="M23.1838 39.8635H39.9998V42.8518H23.1838V39.8635Z" fill="#9F7852"/>
<path d="M23.1838 48.0117H39.9998V51H23.1838V48.0117Z" fill="#9F7852"/>
<path d="M35.843 0V11.3345L30.3723 9.29166L24.9016 11.3345V0H35.843Z" fill="#E60020"/>
<path d="M33.4824 23.1081V26.0964H27.2633V23.1081H28.8436V21.3151H24.7584V29.0232H21.6998V21.3151H17.5604V23.1081H19.1407V26.0964H12.9216V23.1081H14.5019V18.3268H21.6998V15.3767H24.7584V18.3268H31.9021V23.1081H33.4824Z" fill="#FFA720"/>
<path d="M19.8625 30.5144H26.5404V33.5027H19.8625V30.5144Z" fill="#FFA720"/>
<path d="M23.1838 30.5144H26.5403V33.5027H23.1838V30.5144Z" fill="#FF8700"/>
<path d="M33.4823 23.1081V26.0964H27.2633V23.1081H28.8435V21.3151H24.7583V29.0232H23.1841V15.3767H24.7583V18.3268H31.902V23.1081H33.4823Z" fill="#FF8700"/>
</g>
<defs>
<clipPath id="clip0">
<rect width="40" height="51" fill="white"/>
</clipPath>
</defs>
</svg>
