<svg width="50" height="53" viewBox="0 0 50 53" fill="none" xmlns="http://www.w3.org/2000/svg">
<path d="M13.5025 41.756L20.5165 37.7069L17.4472 32.3824L14.378 27.0581L7.32654 31.1264C7.1206 30.0155 7.01195 28.8939 7.01195 27.7641C7.01195 25.0374 7.63274 22.3838 8.79996 19.9315L3.47602 16.8408C1.77997 20.2445 0.873535 23.946 0.873535 27.7641C0.873535 32.2309 2.08915 36.4113 4.17539 40.0284C8.17691 46.9659 15.4414 51.8935 23.8926 52.4166V46.0992C20.0201 45.778 16.415 44.2361 13.5025 41.756Z" fill="#57D9AD"/>
<path d="M23.8926 52.4167V46.0994C20.02 45.7782 16.4149 44.2363 13.5024 41.7563L20.5164 37.7072L17.4472 32.3828L4.17529 40.0286C8.17684 46.966 15.4414 51.8936 23.8926 52.4167Z" fill="#26BFA6"/>
<path d="M47.3941 16.8638L42.0603 19.9576C43.2708 22.494 43.8423 25.1525 43.8423 27.764C43.8423 28.8931 43.7339 30.0158 43.527 31.1304L36.4761 27.0581L33.4069 32.3824L30.3377 37.7068L37.3581 41.7506C34.4455 44.2329 30.8379 45.7774 26.9617 46.099V52.4164C35.4126 51.8933 42.6772 46.9661 46.6789 40.0284C48.7652 36.4116 49.9808 32.231 49.9808 27.764C49.9808 24.0391 49.1331 20.3277 47.3941 16.8638Z" fill="#FFEA80"/>
<path d="M47.3945 16.8638L42.0606 19.9576C43.2711 22.494 43.8427 25.1525 43.8427 27.764C43.8427 28.8931 43.7342 30.0157 43.5273 31.1304L36.4764 27.0581L33.4072 32.3823L46.6792 40.0283C48.7655 36.4115 49.9811 32.2309 49.9811 27.764C49.9811 24.0391 49.1334 20.3277 47.3945 16.8638Z" fill="#FFCC66"/>
<path d="M25.4272 3.21387C17.544 3.21387 9.90668 6.91846 4.98633 14.1693L10.3268 17.2685C12.3872 14.2327 15.5942 11.7414 19.2887 10.4253V18.5576H25.4272H31.5656V10.4253C35.0689 11.6733 38.3004 14.0179 40.5276 17.2993L45.868 14.1999C42.0396 8.03293 34.2854 3.21387 25.4272 3.21387Z" fill="#F25555"/>
<path d="M31.5657 10.4253C35.0689 11.6733 38.3005 14.0179 40.5276 17.2993L45.868 14.1999C42.0396 8.03293 34.2855 3.21387 25.4272 3.21387V18.5576H31.5657V10.4253Z" fill="#D93752"/>
<path d="M25.4273 0.0429688C22.8847 0.0429688 20.8235 2.20614 20.8235 4.74841C20.8235 7.29068 22.8847 9.35156 25.4273 9.35156C27.9699 9.35156 30.0311 7.29068 30.0311 4.74841C30.0311 2.20614 27.9699 0.0429688 25.4273 0.0429688Z" fill="#FFE6CC"/>
<path d="M30.031 4.74841C30.031 2.20614 27.9699 0.0429688 25.4272 0.0429688V9.35156C27.9699 9.35156 30.031 7.29068 30.031 4.74841Z" fill="#FFCCB3"/>
<path d="M9.70901 36.8404C8.3818 34.5415 5.43958 33.9765 3.44646 35.1331C1.24146 36.4013 0.486544 39.2202 1.75902 41.4206C3.01452 43.5939 5.82313 44.3886 8.04869 43.1048C10.1138 41.9152 11.0763 39.21 9.70901 36.8404Z" fill="#FFE6CC"/>
<path d="M8.04902 43.1047C10.1142 41.9153 11.0767 39.2099 9.70937 36.8403L1.75928 41.4205C3.01469 43.5938 5.82333 44.3885 8.04902 43.1047Z" fill="#FFCCB3"/>
<path d="M47.4072 35.1313C45.1101 33.8052 42.434 34.7115 41.1198 36.8258C39.8984 38.7911 40.4765 41.7615 42.8049 43.1043C45.0357 44.3917 47.847 43.5797 49.0945 41.4201C50.352 39.2431 49.639 36.4194 47.4072 35.1313Z" fill="#E77B45"/>
<path d="M47.4071 35.1313C45.11 33.8052 42.4339 34.7115 41.1196 36.8258L49.0945 41.42C50.3519 39.2431 49.6389 36.4194 47.4071 35.1313Z" fill="#CC5229"/>
</svg>
