<svg width="51" height="53" viewBox="0 0 51 53" fill="none" xmlns="http://www.w3.org/2000/svg">
<path d="M4.77344 52.8674C2.28984 52.8674 0.257812 50.8357 0.257812 48.3524V27.5835H9.28906V48.3524C9.28906 50.8357 7.25703 52.8674 4.77344 52.8674Z" fill="#CEC9AE"/>
<path d="M50.8239 0.493652H9.28906V10.4266H50.8239V0.493652Z" fill="#CEC9AE"/>
<path d="M9.28907 32.0984V38.4194V48.3524C9.28907 50.8356 7.25704 52.8674 4.77344 52.8674H9.28907H14.7078H46.3172C48.8063 52.8674 50.8239 50.8501 50.8239 48.3614V12.2324H9.28907V32.0984Z" fill="#EDEADA"/>
<path d="M50.8239 10.4268H9.28906V12.2327H50.8239V10.4268Z" fill="#F4F3ED"/>
<path d="M25.545 14.9417H14.7075V25.7777H25.545V14.9417Z" fill="#61B872"/>
<path d="M45.414 15.8445H30.9642C30.4647 15.8445 30.061 15.4409 30.061 14.9416C30.061 14.4422 30.4647 14.0386 30.9642 14.0386H45.414C45.9134 14.0386 46.3171 14.4422 46.3171 14.9416C46.3171 15.4409 45.9134 15.8445 45.414 15.8445Z" fill="#CEC9AE"/>
<path d="M45.414 21.2625H30.9642C30.4647 21.2625 30.061 20.8589 30.061 20.3595C30.061 19.8602 30.4647 19.4565 30.9642 19.4565H45.414C45.9134 19.4565 46.3171 19.8602 46.3171 20.3595C46.3171 20.8589 45.9134 21.2625 45.414 21.2625Z" fill="#CEC9AE"/>
<path d="M45.414 26.6805H30.9642C30.4647 26.6805 30.061 26.2768 30.061 25.7775C30.061 25.2781 30.4647 24.8745 30.9642 24.8745H45.414C45.9134 24.8745 46.3171 25.2781 46.3171 25.7775C46.3171 26.2768 45.9134 26.6805 45.414 26.6805Z" fill="#CEC9AE"/>
<path d="M45.4138 32.0984H15.6106C15.1112 32.0984 14.7075 31.6948 14.7075 31.1955C14.7075 30.6961 15.1112 30.2925 15.6106 30.2925H45.4138C45.9132 30.2925 46.3169 30.6961 46.3169 31.1955C46.3169 31.6948 45.9132 32.0984 45.4138 32.0984Z" fill="#CEC9AE"/>
<path d="M29.1577 37.5164H15.6107C15.1112 37.5164 14.7075 37.1128 14.7075 36.6134C14.7075 36.1141 15.1112 35.7104 15.6107 35.7104H29.1577C29.6571 35.7104 30.0608 36.1141 30.0608 36.6134C30.0608 37.1128 29.6571 37.5164 29.1577 37.5164Z" fill="#CEC9AE"/>
<path d="M29.1577 42.9347H15.6107C15.1112 42.9347 14.7075 42.531 14.7075 42.0317C14.7075 41.5323 15.1112 41.1287 15.6107 41.1287H29.1577C29.6571 41.1287 30.0608 41.5323 30.0608 42.0317C30.0608 42.531 29.6571 42.9347 29.1577 42.9347Z" fill="#CEC9AE"/>
<path d="M29.1577 48.3524H15.6107C15.1112 48.3524 14.7075 47.9487 14.7075 47.4494C14.7075 46.95 15.1112 46.5464 15.6107 46.5464H29.1577C29.6571 46.5464 30.0608 46.95 30.0608 47.4494C30.0608 47.9487 29.6571 48.3524 29.1577 48.3524Z" fill="#CEC9AE"/>
<path d="M45.4139 36.6135H34.5764V47.4495H45.4139V36.6135Z" fill="#F7B563"/>
<path d="M39.9952 4.10547H20.1265V7.71741H39.9952V4.10547Z" fill="#8E8872"/>
</svg>
