<svg width="53" height="53" viewBox="0 0 53 53" fill="none" xmlns="http://www.w3.org/2000/svg">
<path d="M13.445 52.5465C12.7406 52.0759 12.5488 51.1245 13.0194 50.4187L19.1578 41.2124C19.6314 40.5036 20.5875 40.3208 21.2859 40.7868C21.9902 41.2574 22.1821 42.2088 21.7115 42.9146L15.5731 52.1209C15.0974 52.8319 14.1443 53.0127 13.445 52.5465Z" fill="#396973"/>
<path d="M37.5731 52.1211L31.4347 42.9148C30.9641 42.2091 31.1559 41.2575 31.8603 40.787C32.5586 40.3195 33.5148 40.5037 33.9883 41.2125L40.1267 50.4188C40.5973 51.1245 40.4055 52.076 39.7011 52.5466C39.0005 53.0136 38.0479 52.8309 37.5731 52.1211Z" fill="#2D4A59"/>
<path d="M26.5732 6.77283C25.725 6.77283 25.0386 6.08654 25.0386 5.23843V1.96506C25.0386 1.11695 25.725 0.430664 26.5732 0.430664C27.4214 0.430664 28.1078 1.11695 28.1078 1.96506V5.23843C28.1078 6.08654 27.4214 6.77283 26.5732 6.77283Z" fill="#396973"/>
<path d="M28.1078 5.23843V1.96506C28.1078 1.11695 27.4214 0.430664 26.5732 0.430664V6.77283C27.4214 6.77283 28.1078 6.08654 28.1078 5.23843Z" fill="#2D4A59"/>
<path d="M49.5922 42.0636C49.5922 42.9117 48.9058 43.598 48.0576 43.598H5.08856C4.24033 43.598 3.55396 42.9117 3.55396 42.0636V6.77267C3.55396 5.92456 4.24033 5.23828 5.08856 5.23828H48.0576C48.9058 5.23828 49.5922 5.92456 49.5922 6.77267V42.0636Z" fill="#F3F5F9"/>
<path d="M49.5923 6.77267C49.5923 5.92456 48.9059 5.23828 48.0577 5.23828H26.5732V43.598H48.0577C48.9059 43.598 49.5923 42.9117 49.5923 42.0636V6.77267Z" fill="#E1E6F0"/>
<path d="M35.4741 27.9167L38.5433 32.4928L35.4741 37.4604H29.6425L26.5732 32.0369L29.6425 25.1855C29.8573 25.1855 30.103 25.247 30.3176 25.339L35.4741 27.9167Z" fill="#FFBE40"/>
<path d="M17.3654 9.84155L14.2962 14.4448L9.69238 17.5136C9.69238 21.7485 13.1299 25.1855 17.3654 25.1855C21.6009 25.1855 25.0385 21.7485 25.0385 17.5136C25.0385 13.2786 21.6009 9.84155 17.3654 9.84155Z" fill="#5AB267"/>
<path d="M17.3655 9.84155V15.9792C17.3655 16.8265 16.6784 17.5136 15.8309 17.5136H9.69238C9.69238 13.2786 13.1299 9.84155 17.3655 9.84155Z" fill="#FFDF40"/>
<path d="M38.8498 12.9104H32.7114C31.8631 12.9104 31.1768 12.2241 31.1768 11.376C31.1768 10.5278 31.8631 9.84155 32.7114 9.84155H38.8498C39.698 9.84155 40.3844 10.5278 40.3844 11.376C40.3844 12.2241 39.698 12.9104 38.8498 12.9104Z" fill="#B8C4D9"/>
<path d="M38.8498 19.0477H32.7114C31.8631 19.0477 31.1768 18.3615 31.1768 17.5134C31.1768 16.6653 31.8631 15.979 32.7114 15.979H38.8498C39.698 15.979 40.3844 16.6653 40.3844 17.5134C40.3844 18.3615 39.698 19.0477 38.8498 19.0477Z" fill="#B8C4D9"/>
<path d="M17.3654 31.3231H11.227C10.3788 31.3231 9.69238 30.6369 9.69238 29.7888C9.69238 28.9407 10.3788 28.2544 11.227 28.2544H17.3654C18.2136 28.2544 18.9 28.9407 18.9 29.7888C18.9 30.6369 18.2136 31.3231 17.3654 31.3231Z" fill="#CFD7E6"/>
<path d="M17.3654 37.4606H11.227C10.3788 37.4606 9.69238 36.7743 9.69238 35.9262C9.69238 35.0781 10.3788 34.3918 11.227 34.3918H17.3654C18.2136 34.3918 18.9 35.0781 18.9 35.9262C18.9 36.7743 18.2136 37.4606 17.3654 37.4606Z" fill="#CFD7E6"/>
<path d="M43.4537 23.6511V35.9262C43.4537 36.7855 42.7786 37.4606 41.9191 37.4606H35.4739V27.9167L40.845 22.577C41.2747 22.1166 41.9499 21.9939 42.5022 22.2393C43.0854 22.4849 43.4537 23.0373 43.4537 23.6511Z" fill="#E63A3A"/>
<path d="M51.2291 6.77295H1.91693C1.0687 6.77295 0.382324 6.08665 0.382324 5.23853C0.382324 4.3904 1.0687 3.7041 1.91693 3.7041H51.2291C52.0773 3.7041 52.7637 4.3904 52.7637 5.23853C52.7637 6.08665 52.0773 6.77295 51.2291 6.77295Z" fill="#396973"/>
<path d="M51.2292 3.7041H26.5732V6.77295H51.2292C52.0774 6.77295 52.7638 6.08665 52.7638 5.23853C52.7638 4.3904 52.0774 3.7041 51.2292 3.7041Z" fill="#2D4A59"/>
<path d="M29.6423 25.1855V37.4606H23.5039C22.6444 37.4606 21.9692 36.7855 21.9692 35.9262V32.8574C21.9692 32.4585 22.1227 32.0596 22.4297 31.7835L28.5682 25.646C28.8443 25.339 29.2433 25.1855 29.6423 25.1855Z" fill="#FF7559"/>
<path d="M26.5732 27.6407V37.4606H29.6425V25.1855C29.2435 25.1855 28.8445 25.339 28.5683 25.646L26.5732 27.6407Z" fill="#E63A3A"/>
</svg>
