<svg width="57" height="41" viewBox="0 0 57 41" fill="none" xmlns="http://www.w3.org/2000/svg">
<path d="M56.1477 40.4375C51.9612 40.4375 47.7746 40.4377 43.5881 40.4367C43.3874 40.4367 43.1868 40.4255 42.986 40.4195C42.7833 40.2144 42.8062 39.9492 42.8061 39.6968C42.8017 31.4783 42.8021 23.2597 42.8045 15.0411C42.8047 14.7848 42.8045 14.5268 42.9722 14.3081C43.0922 14.1757 43.2562 14.2409 43.3996 14.2133C43.5792 14.0461 43.7862 13.942 44.0366 13.937C44.9454 14.0249 45.8597 13.8814 46.7693 14.0332C50.5807 14.6691 53.4341 17.7076 53.8869 21.5431C54.3405 25.3849 54.8874 29.2154 55.3631 33.0546C55.641 35.2971 56.0551 37.5259 56.0977 39.7944C56.0983 39.828 56.1251 39.8593 56.1477 39.8891C56.1477 40.0718 56.1477 40.2546 56.1477 40.4375Z" fill="#EF3800"/>
<path d="M43.8605 0.948242C44.7718 1.18137 45.6778 1.41863 46.4844 1.93994C48.7858 3.42705 49.8873 5.91797 49.5136 8.40567C49.0834 11.2694 47.0629 13.4052 44.4194 13.9742C44.2783 14.0046 44.1288 13.9963 43.9834 14.0061C43.7955 14.0943 43.6413 14.2767 43.3996 14.2135C43.3071 14.0172 43.1154 14.163 42.986 14.0936C42.7838 13.8889 42.807 13.6243 42.8068 13.3724C42.802 9.47281 42.8024 5.57305 42.806 1.67342C42.8062 1.4194 42.7948 1.15842 42.9828 0.948242C43.2754 0.948242 43.568 0.948242 43.8605 0.948242Z" fill="#EF3800"/>
<path d="M14.1294 0.948127C14.4411 1.1476 14.8146 1.13535 15.1541 1.24508C18.0829 2.19176 19.9128 4.94658 19.7174 8.14161C19.545 10.9617 17.2088 13.4803 14.2867 14.0174C13.9048 14.0877 13.5296 14.1261 13.1451 14.0934C12.943 13.8885 12.9663 13.6239 12.9659 13.3721C12.9612 9.47241 12.9615 5.57285 12.9652 1.67316C12.9654 1.41915 12.9539 1.15817 13.142 0.947998C13.4712 0.948127 13.8003 0.948127 14.1294 0.948127Z" fill="#6B77E7"/>
<path d="M42.9827 0.948242C42.9838 5.32996 42.9849 9.7118 42.986 14.0935C39.9174 14.1933 36.9596 11.7221 36.5083 8.68129C35.9637 5.01263 38.0937 1.8979 41.7147 1.06829C41.8158 1.04508 41.94 1.07757 41.9954 0.948242C42.3244 0.948242 42.6535 0.948242 42.9827 0.948242Z" fill="#FE641A"/>
<path d="M13.1421 0.948242C13.1431 5.33009 13.1442 9.71194 13.1452 14.0937C12.9995 14.1031 12.8539 14.1126 12.7082 14.122C12.459 14.2548 12.2465 14.1488 12.0377 14.019C8.72502 13.3379 6.53028 10.6838 6.56136 7.39614C6.58844 4.5331 8.66931 1.88411 11.4433 1.17067C11.6828 1.10916 11.9508 1.12709 12.1547 0.948242C12.4838 0.948242 12.8129 0.948242 13.1421 0.948242Z" fill="#6AA8FE"/>
<path d="M13.145 40.4198C8.88648 40.4257 4.62797 40.4291 0.369589 40.4424C0.048737 40.4434 -0.0255439 40.3561 0.0179156 40.0292C0.493133 36.4515 0.944105 32.8704 1.41597 29.2922C1.80207 26.3649 2.08024 23.4159 2.63619 20.5207C3.34934 16.8066 6.7874 14.1389 10.5612 14.112C11.0546 14.1085 11.5478 14.1065 12.0412 14.1036C12.2835 14.0081 12.4858 14.182 12.7108 14.2033C12.8897 14.2558 13.0946 14.1862 13.256 14.3199C13.3298 14.5315 13.3226 14.7509 13.3224 14.9705C13.3197 23.1204 13.3227 31.2704 13.3173 39.4203C13.3173 39.7587 13.3993 40.121 13.145 40.4198Z" fill="#6AA8FE"/>
<path d="M13.1451 40.4194C13.1442 31.8902 13.1429 23.3611 13.1444 14.8319C13.1444 14.6563 13.0879 14.4612 13.2563 14.3193C15.9855 14.9078 17.8738 16.5407 19.0383 19.0342C19.512 20.0486 19.7178 21.1345 19.7307 22.2639C19.7633 25.123 21.9106 27.2416 24.7801 27.2728C25.8743 27.2847 26.9685 27.286 28.0629 27.292C28.2639 27.499 28.2363 27.7645 28.2371 28.0165C28.2427 29.7154 28.2427 31.4142 28.2371 33.113C28.2363 33.365 28.2638 33.6305 28.0629 33.8375C25.5723 33.8344 23.0691 34.0511 20.6271 33.3105C19.2944 32.9063 18.0327 32.358 16.8436 31.6368C16.739 31.5734 16.6551 31.4612 16.4596 31.4795C16.4513 31.661 16.4349 31.8513 16.4348 32.0415C16.4331 34.6686 16.4253 37.296 16.4425 39.923C16.4451 40.3198 16.3611 40.465 15.9356 40.4472C15.0065 40.4086 14.0753 40.4254 13.1451 40.4194Z" fill="#6B77E7"/>
<path d="M28.0627 33.8379C28.0627 31.6561 28.0627 29.4743 28.0627 27.2925C29.1403 27.2864 30.218 27.2799 31.2956 27.2746C34.2288 27.2603 36.3256 25.2024 36.4021 22.262C36.5008 18.4645 38.9908 15.2913 42.5951 14.3723C42.7182 14.3409 42.8464 14.329 42.9722 14.3081C42.9757 19.6179 42.9796 24.9278 42.9825 30.2376C42.9844 33.6316 42.9848 37.0256 42.9858 40.4196C42.0554 40.4256 41.1242 40.4107 40.195 40.4472C39.7885 40.4632 39.6776 40.3554 39.6809 39.9401C39.7015 37.2942 39.6913 34.6481 39.6913 32.0021C39.6913 31.8205 39.6913 31.6389 39.6913 31.4692C39.5406 31.3885 39.466 31.4991 39.3814 31.5523C36.8751 33.1284 34.1402 33.8871 31.1823 33.8568C30.1426 33.8461 29.1027 33.844 28.0627 33.8379Z" fill="#FE641A"/>
<path d="M12.7108 14.2031C12.4745 14.2583 12.2617 14.1548 12.0412 14.1035C12.0412 14.0751 12.04 14.047 12.0376 14.0188C12.2749 13.9628 12.4874 14.0692 12.7081 14.1218C12.7075 14.1491 12.7084 14.1762 12.7108 14.2031Z" fill="#D0E4FE"/>
</svg>
