<svg width="55" height="53" viewBox="0 0 55 53" fill="none" xmlns="http://www.w3.org/2000/svg">
<path d="M28.2601 17.4501C33.0091 17.4501 36.8589 13.6402 36.8589 8.94049C36.8589 4.24078 33.0091 0.430908 28.2601 0.430908C23.5112 0.430908 19.6614 4.24078 19.6614 8.94049C19.6614 13.6402 23.5112 17.4501 28.2601 17.4501Z" fill="#CC8B66"/>
<path d="M28.2602 0.430664C27.4234 0.430664 26.6153 0.551202 25.8506 0.771776C29.4261 1.80312 32.0397 5.06872 32.0397 8.94019C32.0397 12.8117 29.4263 16.0773 25.8506 17.1086C26.6153 17.3292 27.4234 17.4497 28.2602 17.4497C33.0091 17.4497 36.8589 13.6399 36.8589 8.94019C36.8589 4.24051 33.0089 0.430664 28.2602 0.430664Z" fill="#BF7950"/>
<path d="M39.5559 38.6713H16.9644V28.6276C16.9644 23.9044 20.7969 20.0754 25.5248 20.0754H30.9954C35.7232 20.0754 39.5559 23.9043 39.5559 28.6276V38.6713Z" fill="#828CB3"/>
<path d="M28.26 29.0764L33.6807 19.7849H22.8394L28.26 29.0764Z" fill="#FFF9EB"/>
<path d="M23.5053 10.1011C22.2795 10.1011 21.285 11.0829 21.2822 12.2961L21.2805 16.0185C21.2805 19.8235 24.3974 22.9081 28.2421 22.9081H28.2778C32.1226 22.9081 35.2394 19.8236 35.2394 16.0186V12.301C35.2394 11.086 34.2441 10.1011 33.0163 10.1011H23.5053Z" fill="#FFCAB9"/>
<path d="M33.0165 10.1011H28.1974C29.4252 10.1011 30.4205 11.086 30.4205 12.301V16.0185C30.4205 18.9917 28.5171 21.5251 25.8506 22.4905C26.5965 22.7606 27.402 22.908 28.2423 22.908H28.278C32.1228 22.908 35.2395 19.8235 35.2395 16.0185V12.301C35.2395 11.0861 34.2442 10.1011 33.0165 10.1011Z" fill="#FABBA7"/>
<path d="M28.2424 28.1738C27.7434 28.1738 27.3389 28.5779 27.3389 29.0765V33.9671C27.3389 34.4657 27.7434 34.8698 28.2424 34.8698C28.7414 34.8698 29.1459 34.4657 29.1459 33.9671V29.0765C29.1459 28.5779 28.7414 28.1738 28.2424 28.1738Z" fill="#717EB3"/>
<path d="M14.0784 42.9951H42.4414V52.8046H14.0784V42.9951Z" fill="#FFEA00"/>
<path d="M37.6223 42.9951H42.4415V52.8046H37.6223V42.9951Z" fill="#FFD900"/>
<path d="M11.4601 44.6827H45.0598C45.9528 44.6827 46.7181 44.0448 46.8778 43.1671L48.5515 33.9673H7.96851L9.64225 43.1671C9.80183 44.0448 10.5669 44.6827 11.4601 44.6827Z" fill="#CC8B66"/>
<path d="M43.7322 33.9673L42.0584 43.1671C41.8987 44.0448 41.1335 44.6827 40.2405 44.6827H45.0596C45.9527 44.6827 46.7179 44.0448 46.8776 43.1671L48.5513 33.9673H43.7322Z" fill="#BF7950"/>
<path d="M36.8586 30.4402H46.5048V33.9668H36.8586V30.4402Z" fill="#FFEA00"/>
<path d="M51.8203 25.7715H41.6819C41.1829 25.7715 40.7783 26.1755 40.7783 26.6741C40.7783 27.1728 41.1829 27.5768 41.6819 27.5768H51.8203C52.3193 27.5768 52.7239 27.1728 52.7239 26.6741C52.7239 26.1755 52.3193 25.7715 51.8203 25.7715Z" fill="#B06A41"/>
<path d="M39.3569 22.9084H44.0067V30.4406H39.3569V22.9084Z" fill="#CC8B66"/>
<path d="M53.7789 33.8901H1.41619C0.86166 33.8901 0.412109 34.3391 0.412109 34.8932C0.412109 35.4474 0.86166 35.8964 1.41619 35.8964H53.7789C54.3334 35.8964 54.783 35.4474 54.783 34.8932C54.783 34.3391 54.3334 33.8901 53.7789 33.8901Z" fill="#B06A41"/>
</svg>
