<svg width="59" height="54" viewBox="0 0 59 54" fill="none" xmlns="http://www.w3.org/2000/svg">
<path d="M32.6191 15.1634C32.8472 15.182 33.0754 15.2005 33.3036 15.2191C33.7412 15.2992 33.7833 15.6377 33.8073 15.9889C33.8137 17.7382 33.8105 19.4873 33.8104 21.2362C33.8102 22.473 33.5858 22.6833 32.3219 22.6417C31.7521 22.6585 31.1821 22.6591 30.6122 22.642C29.36 22.6608 28.108 22.6669 26.856 22.6403C26.3709 22.6124 25.8372 22.7774 25.4648 22.2947C25.139 21.585 25.345 20.8314 25.2842 20.0993C25.2753 18.8366 25.2729 17.5741 25.2834 16.3117C25.2919 15.3079 25.5881 15.0231 26.5863 15.0137C27.8503 14.9916 29.1142 14.9892 30.3782 15.0148C30.9336 14.9875 31.4893 15.0027 32.0448 15.0073C32.2471 15.0091 32.456 15.0078 32.6191 15.1634Z" fill="#DF365F"/>
<path d="M50.2774 18.1924C51.2592 18.0572 51.3581 18.1388 51.5176 19.1059C51.7535 20.5365 52.0046 21.9648 52.2492 23.3939C52.6212 23.8763 52.6007 24.4261 52.4925 24.9762C52.4418 25.2337 52.2139 25.36 51.9726 25.4344C51.7592 25.5002 51.5497 25.5763 51.3395 25.6502C50.6326 25.6025 49.9571 25.8221 49.2646 25.9006C48.1482 26.1441 46.9933 26.1898 45.9016 26.5602C45.8082 26.5721 45.7146 26.5477 45.6228 26.5546C44.5309 26.6359 44.2598 26.441 44.0763 25.2245C44.029 24.9113 43.9519 24.6026 43.9326 24.2851C43.8049 23.52 43.6649 22.7573 43.5285 21.9936C43.4516 21.4236 43.3063 20.8631 43.2704 20.2884C43.2192 19.4672 43.452 19.1921 44.2722 19.058C45.4848 18.8269 46.7079 18.6573 47.9218 18.4327C48.4924 18.351 49.0586 18.2423 49.6285 18.1565C49.8455 18.1238 50.0688 18.0484 50.2774 18.1924Z" fill="#37CC8F"/>
<path d="M40.7309 11.4747C40.3768 10.4577 40.4259 9.43791 40.7012 8.41395C40.7486 8.23768 40.871 8.07836 40.8314 7.88076C41.6207 6.09906 42.9738 5.02301 44.884 4.64453C45.4079 4.99809 46.0133 5.20804 46.5165 5.60426C47.0679 6.03832 47.4853 6.57702 47.8606 7.15703C47.9735 7.33162 48.0492 7.52529 48.0479 7.73413C48.044 8.34322 48.1686 8.90639 48.5108 9.42791C48.6675 9.66684 48.6685 9.96088 48.4569 10.2082C48.2245 10.3894 47.9408 10.4223 47.6669 10.4613C45.5997 10.7549 43.5536 11.1733 41.4908 11.492C41.2407 11.5305 40.9801 11.6376 40.7309 11.4747Z" fill="#566590"/>
<path d="M24.3313 7.3208C24.0944 6.74102 24.2737 6.13766 24.2313 5.54688C24.5111 4.36553 24.8936 3.24077 25.8522 2.40568C26.6519 1.70891 27.5413 1.20469 28.6021 1.03931C29.432 1.34772 30.1932 1.75449 30.8169 2.40972C31.3421 2.96155 31.8183 3.50484 31.8233 4.33477C31.8255 4.68652 32.0133 5.01099 32.2276 5.30436C32.5564 5.75436 32.474 6.26217 32.3958 6.76089C32.3681 6.93783 32.2352 7.05045 32.0598 7.10445C31.4682 7.20943 30.8718 7.15329 30.2781 7.15643C28.6416 7.16508 27.005 7.16182 25.3684 7.15744C25.0121 7.15654 24.6633 7.1781 24.3313 7.3208Z" fill="#556490"/>
<path d="M15.4854 19.1837C15.6207 19.1993 15.756 19.215 15.8914 19.2306C15.939 19.262 15.9666 19.306 15.9747 19.3625C15.9586 19.6248 15.792 19.8037 15.6225 19.9755C14.918 20.689 14.2147 21.4042 13.4917 22.0989C13.2878 22.2947 13.0882 22.5482 12.7391 22.4764C12.6627 22.3876 12.6443 22.2759 12.6205 22.1667C12.5308 21.7555 12.2621 21.5497 11.8565 21.585C11.4791 21.6179 11.2303 21.8693 11.1925 22.239C11.1512 22.6426 11.3686 22.9098 11.7752 23.003C11.8841 23.0279 11.9962 23.0444 12.0877 23.1182C12.1887 23.3063 12.067 23.4528 11.9651 23.5686C11.2918 24.3338 10.6077 25.0896 9.79033 25.7102C9.378 25.727 8.96769 25.7335 8.62352 25.4476C7.29939 25.1934 7.29187 25.1922 7.495 23.863C7.7133 22.4348 7.94753 21.0089 8.17481 19.582C8.28115 19.4155 8.15235 19.2599 8.15123 19.0977C8.14562 18.2557 8.64205 17.8814 9.55374 18.0456C10.5193 18.185 11.4782 18.3669 12.4429 18.5133C13.2345 18.6543 14.0297 18.7744 14.8205 18.9204C15.0578 18.9644 15.3063 18.9889 15.4854 19.1837Z" fill="#FEA81E"/>
<path d="M8.62766 9.79252C8.64899 9.45413 8.56051 9.10618 8.71648 8.77958C8.61542 8.24245 8.88121 7.80054 9.11388 7.36334C9.79963 6.07509 10.8538 5.20586 12.2242 4.71611C12.3984 4.65391 12.5748 4.58397 12.7675 4.63236C12.8413 4.6373 12.9152 4.64224 12.9891 4.64729C13.723 5.18082 14.5514 5.5785 15.1573 6.2947C16.0844 7.39062 16.5704 8.61229 16.365 10.0566C16.3167 10.3963 16.3049 10.7755 15.9563 10.9961C15.368 11.0838 14.8056 10.8964 14.2385 10.8098C12.52 10.5478 10.8081 10.2423 9.09209 9.96318C8.9259 9.93601 8.75657 9.92007 8.62766 9.79252Z" fill="#566590"/>
<path d="M18.2601 13.1546C17.7871 13.8965 17.0254 14.3148 16.3638 14.8453C15.4437 15.4882 14.3831 15.5367 13.3446 15.4138C12.0767 15.2637 10.9382 14.752 10.0962 13.7267C9.67123 13.0358 9.09416 12.4298 8.90967 11.6044C9.09124 11.3967 9.32189 11.47 9.53816 11.5048C12.272 11.9451 14.999 12.4262 17.7299 12.8842C17.9339 12.9185 18.1396 12.9545 18.2601 13.1546Z" fill="#4F5F87"/>
<path d="M10.0968 13.7266C10.7711 14.1715 11.3951 14.6845 12.1745 14.9729C13.4944 15.4615 14.7778 15.4107 16.0624 14.8802C16.1567 14.8412 16.2506 14.7406 16.3643 14.845C16.0714 16.2911 15.7784 17.7371 15.4856 19.1832C14.4679 19.0057 13.4502 18.8283 12.4325 18.6509C12.1553 18.2847 11.9657 17.863 11.6244 17.5326C11.2167 17.1379 10.7832 16.8099 10.2407 16.6387C9.9354 16.5424 9.69779 16.3947 9.70498 16.0273C9.69173 15.8422 9.75102 15.6757 9.83546 15.5158C9.9226 14.9194 10.0097 14.323 10.0968 13.7266Z" fill="#2A3A51"/>
<path d="M16.0213 10.9074C16.8495 8.45048 15.5152 6.22023 13.3459 5.07366C13.1895 4.99103 12.8339 5.01438 12.9894 4.64746C15.1716 4.36352 16.9809 5.02561 18.3653 6.76566C18.8596 7.1831 19.1298 7.71069 19.1501 8.36122C19.1672 8.47102 19.146 8.59228 19.2454 8.67716C19.3601 9.66171 19.4541 10.645 19.0627 11.598C18.1739 11.499 17.2992 11.3108 16.4171 11.1698C16.2493 11.143 16.0864 11.0955 16.0213 10.9074Z" fill="#4B5B81"/>
<path d="M24.3311 7.32089C24.3156 6.89132 24.6319 6.98429 24.8757 6.98395C27.3146 6.97991 29.7535 6.97968 32.1924 6.97845C33.0864 6.71 33.9799 6.68822 34.8726 6.98541C34.8471 7.63133 34.6417 8.22167 34.3192 8.77575C34.0612 8.96953 33.7594 8.95943 33.4607 8.95673C32.8453 8.95123 32.2298 8.97537 31.6145 8.94394C29.5766 8.98233 27.5386 8.95449 25.5006 8.95943C25.2722 8.95999 25.0536 8.92474 24.8565 8.80022C24.56 8.35034 24.3684 7.86295 24.3311 7.32089Z" fill="#344867"/>
<path d="M40.731 11.4748C42.4582 11.1742 44.1856 10.874 45.9129 10.573C46.7669 10.4241 47.6207 10.2738 48.4747 10.1243C49.2254 9.75355 50.0471 9.73278 50.855 9.65576C51.0062 9.64139 51.1991 9.68551 51.1876 9.92522C51.1838 10.4903 51.1765 11.055 50.9341 11.5836C50.735 11.7816 50.4723 11.8103 50.2152 11.8531C49.3711 11.9941 48.5267 12.1331 47.6809 12.2641C45.8965 12.5654 44.1169 12.8955 42.3283 13.1719C42.0872 13.2091 41.8476 13.2415 41.6074 13.1703C41.15 12.6905 40.8686 12.1198 40.731 11.4748Z" fill="#344867"/>
<path d="M16.0212 10.907C16.8405 11.1388 17.6885 11.2126 18.5236 11.3565C18.7317 11.3923 18.926 11.4201 19.0629 11.5977C18.9236 12.1827 18.6345 12.6905 18.2603 13.1544C16.7857 12.8969 15.3115 12.637 13.8363 12.3824C12.306 12.1182 10.775 11.8577 9.24358 11.6002C9.13567 11.582 9.02136 11.602 8.90996 11.6042C8.65259 11.0257 8.57544 10.4191 8.62777 9.79248C9.79999 9.81157 10.9286 10.1334 12.0806 10.2938C13.3972 10.477 14.7079 10.7007 16.0212 10.907Z" fill="#344867"/>
<path d="M50.2778 18.1929C49.4989 18.3257 48.7291 18.5177 47.9363 18.5627C47.6878 18.6648 47.5083 18.5543 47.3465 18.3765C46.5489 17.4999 45.5742 17.0453 44.3724 17.1219C44.188 17.1337 43.9985 17.1216 43.8361 17.0063C43.503 16.3012 43.3108 15.5658 43.3596 14.7787C43.7722 14.557 44.082 14.9411 44.4538 14.9632C46.0583 15.3948 47.5303 15.0997 48.8963 14.1745C49.1474 14.0044 49.3302 13.7005 49.6932 13.7253C49.7824 14.3588 49.8716 14.9923 49.9608 15.6257C50.3135 16.1599 50.2879 16.7608 50.2571 17.3592C50.2516 17.4658 50.1948 17.5691 50.2618 17.6739C50.2671 17.847 50.2724 18.02 50.2778 18.1929Z" fill="#2A3A51"/>
<path d="M32.7418 12.4591C32.5925 13.2491 32.6441 14.0468 32.6517 14.8427C32.6409 14.9496 32.6301 15.0566 32.6193 15.1634C31.8781 15.1635 31.137 15.1636 30.3958 15.1637C29.9956 14.871 29.811 14.4006 29.4719 14.0521C28.7913 13.3526 27.9663 12.9789 27.0153 12.8522C26.7738 12.8199 26.5254 12.8204 26.3872 12.5669C26.316 12.3952 26.315 12.214 26.311 12.0329C26.3207 11.7569 26.3087 11.4805 26.3199 11.2047C26.3433 10.6337 26.4407 10.5682 26.94 10.8103C27.3715 11.0196 27.8124 11.2032 28.2661 11.3563C29.5375 11.7451 30.7394 11.5124 31.9082 10.9581C32.1713 10.8333 32.4054 10.6084 32.7367 10.694C32.7383 11.2824 32.74 11.8708 32.7418 12.4591Z" fill="#2A3A51"/>
<path d="M34.8727 6.98535C33.9793 6.98311 33.0859 6.98075 32.1925 6.97839C32.334 6.3638 32.4824 5.76797 31.9708 5.21086C31.7854 5.00899 31.6585 4.66712 31.6634 4.39194C31.6855 3.13851 30.7451 2.56704 29.9648 1.87464C29.56 1.51548 28.9624 1.47102 28.6021 1.03932C29.5398 0.898982 30.4597 0.941871 31.3716 1.2358C32.0606 1.45788 32.6208 1.88194 33.1975 2.28725C33.7447 2.52684 34.0227 2.98593 34.205 3.52294C34.7509 4.6148 35.1024 5.74405 34.8727 6.98535Z" fill="#4C5C82"/>
<path d="M51.1875 9.92557C50.9468 9.69024 50.6698 9.79904 50.3985 9.8399C49.7574 9.93646 49.1159 10.03 48.4745 10.1246C48.4964 9.78467 48.471 9.47838 48.2038 9.20173C47.9816 8.97157 47.9138 8.61083 47.9316 8.31386C48.0043 7.10579 47.2045 6.43697 46.4335 5.73547C46.0969 5.42919 45.6856 5.25539 45.2891 5.05251C45.1122 4.96201 44.8909 4.90756 44.8838 4.64484C46.5975 4.47115 48.1743 4.77395 49.4948 5.96889C50.0325 6.21758 50.348 6.64759 50.5048 7.20695C50.8965 8.07203 51.2612 8.94373 51.1875 9.92557Z" fill="#4C5B82"/>
<path d="M8.62305 25.4478C9.03157 25.5007 9.4401 25.5539 9.84851 25.6068C10.4638 25.5228 11.0543 25.5673 11.5825 25.9391C11.6793 26.137 11.6258 26.3378 11.5875 26.536C11.4124 27.4428 11.1905 28.3398 11.0233 29.2482C10.9855 29.4538 10.9129 29.6385 10.7451 29.774C9.93868 29.9596 9.13275 30.1471 8.3257 30.3294C8.15759 30.3674 8.03407 30.3176 8.02498 30.1178C7.94345 30.032 7.89977 29.9221 7.91369 29.8121C8.02947 28.895 8.01712 27.9556 8.37848 27.0803C8.46 26.5363 8.54153 25.9921 8.62305 25.4478Z" fill="#344866"/>
<path d="M51.235 25.5708C51.3304 25.8423 51.2037 26.1519 51.3795 26.4095C51.4359 27.5965 51.6592 28.764 51.7895 29.9424C51.8118 30.144 51.8121 30.348 51.8225 30.5509C51.0796 30.3699 50.3368 30.189 49.5939 30.0082C49.4287 29.8121 49.3868 29.5694 49.359 29.3293C49.256 28.4389 49.1048 27.5547 49.0128 26.6634C48.9796 26.3415 48.8893 25.9798 49.2583 25.756C49.8035 25.6675 50.3499 25.5855 50.8931 25.4862C51.0316 25.4609 51.1413 25.4597 51.235 25.5708Z" fill="#2A3950"/>
<path d="M49.6929 13.7253C48.457 14.8596 47.0171 15.4214 45.3262 15.2932C45.0117 15.2694 44.7067 15.2293 44.4292 15.0683C44.5671 14.8956 44.7804 14.87 44.9681 14.8001C46.0536 14.3956 46.8582 13.6517 47.5087 12.7178C47.6289 12.5454 47.7023 12.3599 47.6878 12.1461C48.4965 11.9971 49.3048 11.8452 50.1143 11.7006C50.3859 11.6521 50.6606 11.622 50.9338 11.5835C50.7286 12.4183 50.2065 13.0694 49.6929 13.7253Z" fill="#4D5D84"/>
<path d="M32.7367 10.6942C31.6807 11.3013 30.5819 11.7613 29.3277 11.6983C28.9598 11.6798 28.6005 11.6312 28.2629 11.4739C28.6367 11.1531 29.1314 11.0775 29.5486 10.836C30.4255 10.3284 31.0188 9.55 31.6304 8.78261C32.5266 8.78037 33.4229 8.77812 34.3192 8.77588C33.9762 9.5674 33.3466 10.1227 32.7367 10.6942Z" fill="#4D5D84"/>
<path d="M1.74316 36.5149C3.25247 35.8682 4.86328 35.5693 6.44412 35.1792C8.0419 34.7849 9.66282 34.4849 11.273 34.1405C11.3623 34.1214 11.4453 34.0729 11.5313 34.0381C12.404 33.7303 13.2897 33.5013 14.2282 33.588C15.2228 33.4637 16.2166 33.3327 17.2122 33.2169C18.4479 33.0733 19.684 32.9306 20.9221 32.8109C21.5327 32.7519 22.1418 32.6323 22.7608 32.6991C22.8456 33.0603 22.5665 33.2388 22.367 33.4415C21.3494 34.4751 20.3165 35.4935 19.2845 36.5335C19.4688 36.6618 19.6714 36.5678 19.8326 36.66C20.042 36.78 19.9992 36.8753 19.8054 36.9597C19.3785 37.0498 18.9514 37.0273 18.5255 36.9645C18.3032 36.9318 18.0833 36.9057 17.8582 36.9381C17.2221 37.0295 17.0995 37.1546 17.0929 37.8044C17.0819 38.8856 17.0937 39.967 17.0809 41.0479C17.0841 41.6444 17.0668 42.2414 17.0841 42.8381C17.095 43.2162 17.2336 43.5028 17.6634 43.5151C18.1144 43.528 18.2247 43.235 18.224 42.8521C18.2234 42.535 18.2207 42.2178 18.2265 41.9007C18.2397 41.1645 18.32 41.0848 19.0825 41.0719C19.3821 41.0668 19.6776 41.0476 19.9701 40.9752C21.504 40.5956 22.0727 38.6692 20.9918 37.5062C20.903 37.4107 20.799 37.3294 20.7269 37.2194C20.5873 36.8727 20.8681 36.709 21.0531 36.5218C22.1631 35.399 23.2842 34.2871 24.3983 33.1683C24.5655 33.0004 24.7752 32.854 24.7764 32.5775C24.9269 32.4146 25.1248 32.4722 25.3053 32.472C28.0717 32.4679 30.8405 32.3989 33.6037 32.4912C35.4 32.5511 37.1991 32.6989 38.9929 32.8896C40.6721 33.0682 42.3543 33.2193 44.0232 33.4773C46.0758 33.7946 48.1215 34.1492 50.1561 34.5749C52.1952 35.0015 54.2071 35.5293 56.2196 36.0595C56.6534 36.1738 57.0765 36.3131 57.478 36.5149C56.2724 39.6256 55.0667 42.7362 53.8609 45.8469C53.8205 45.9512 53.7801 46.0553 53.7401 46.1598C53.3832 47.0916 53.2655 47.1726 52.2632 47.1773C52.1324 47.1779 52.0017 47.1798 51.8709 47.181C51.54 47.4271 51.1539 47.3583 50.7854 47.3584C40.9445 47.3617 31.1037 47.361 21.2628 47.361C16.9598 47.361 12.6567 47.3617 8.35374 47.3596C8.05549 47.3595 7.75444 47.3868 7.46001 47.3085C7.38893 47.2816 7.32246 47.246 7.26025 47.2025C6.13397 47.3759 5.67313 46.7582 5.31222 45.7776C4.16955 42.6728 2.93951 39.6001 1.74316 36.5149Z" fill="#C8AC90"/>
<path d="M27.0434 27.964C26.9753 26.1402 26.9073 24.3164 26.8394 22.4927C28.1006 22.4935 29.3618 22.4942 30.623 22.4949C30.8706 22.7827 30.8276 23.1397 30.7874 23.4594C30.6214 24.7765 30.778 26.1088 30.5778 27.4225C30.5471 27.6234 30.5639 27.8374 30.3929 27.9919C29.276 28.0181 28.1592 28.0499 27.0434 27.964Z" fill="#354967"/>
<path d="M46.442 29.4362C46.2488 28.4529 46.0558 27.4696 45.8625 26.4859C46.0113 26.1625 46.341 26.2481 46.5871 26.2001C47.4727 26.0275 48.3671 25.9002 49.2582 25.7559C48.967 26.4158 49.2735 27.0636 49.3148 27.7136C49.3637 28.4812 49.4972 29.2436 49.5939 30.0082C48.5433 29.8175 47.4927 29.6269 46.442 29.4362Z" fill="#344867"/>
<path d="M57.1304 31.9325C55.4025 31.3216 53.6176 30.9132 51.8228 30.5509C51.7014 30.2888 51.4418 30.2733 51.2112 30.222C50.6663 30.1007 50.1143 30.0129 49.571 29.883C48.5261 29.684 47.4857 29.4613 46.4371 29.284C44.1495 28.8656 41.8495 28.537 39.5297 28.3569C38.8351 28.2223 38.1263 28.222 37.4264 28.1398C35.6535 27.9976 33.8801 27.864 32.0988 27.9269C31.5162 27.8943 30.9283 27.9726 30.3505 27.8457C29.252 27.7717 28.1534 27.7767 27.0549 27.8471C26.8529 27.8848 26.6503 27.9152 26.4445 27.9156C24.0401 27.9195 21.6484 28.1192 19.2602 28.3813C19.0702 28.3844 18.8823 28.393 18.7256 28.5222C18.7094 28.5677 18.6903 28.6111 18.67 28.6534C18.0517 28.696 17.4336 28.7384 16.8153 28.781C16.6867 28.7566 16.5671 28.7609 16.4828 28.8776C16.4588 28.8335 16.4144 28.8012 16.3492 28.7812C15.3574 28.8028 14.391 29.0161 13.4177 29.1777C12.5344 29.3259 11.6556 29.5009 10.7708 29.6424C10.349 29.7265 9.93298 29.8371 9.51144 29.9167C9.02096 30.0094 8.53799 30.207 8.0228 30.0744C7.66785 30.2779 7.27697 30.3695 6.88664 30.4819C6.00359 30.7363 5.05686 30.7728 4.23624 31.242C3.90038 31.453 3.51219 31.5032 3.13714 31.5794C2.07565 31.7955 1.25211 32.3011 0.864258 33.3673C0.864258 33.7416 0.864258 34.1159 0.864258 34.4901C1.23224 35.1325 1.31533 35.8986 1.74316 36.5149C1.89262 36.5947 2.03298 36.5309 2.17436 36.4872C4.42029 35.7948 6.70327 35.251 8.99928 34.7529C9.83461 34.5717 10.6921 34.4782 11.5002 34.1765C11.5522 34.1269 11.603 34.076 11.6549 34.0262C12.5158 33.9462 13.3602 33.767 14.2054 33.5928C14.239 33.638 14.298 33.6768 14.3901 33.7063C14.8583 33.741 15.316 33.642 15.7753 33.5784C18.0983 33.2573 20.4238 32.9615 22.7692 32.8595C23.4427 32.8532 24.1075 32.7337 24.7787 32.7001C24.9399 32.6419 25.1063 32.636 25.2756 32.6386C28.9551 32.6955 32.6354 32.5263 36.3146 32.836C39.0155 33.0633 41.713 33.2962 44.3925 33.7033C48.7783 34.3696 53.1078 35.2943 57.3572 36.5793C57.6408 36.5869 57.7279 36.3722 57.8183 36.168C58.0571 35.628 58.2579 35.0753 58.3573 34.4902C58.3573 34.116 58.3573 33.7417 58.3573 33.3675C58.0943 32.7632 57.7845 32.1638 57.1304 31.9325Z" fill="#DDCBBD"/>
<path d="M30.3926 27.9919C30.4693 26.1596 30.546 24.3272 30.6227 22.4949C31.1822 22.4942 31.7418 22.4935 32.3012 22.4927C32.4602 22.6501 32.4742 22.8548 32.4741 23.0581C32.4737 23.8474 32.4823 24.6383 32.2123 25.3976C32.1584 26.2921 32.1045 27.1866 32.0506 28.0811C31.5017 27.9821 30.9383 28.1502 30.3926 27.9919Z" fill="#29384F"/>
<path d="M19.9554 36.8294C19.6766 36.6218 19.3364 36.8136 18.8928 36.6432C19.2564 36.3114 19.577 36.0373 19.8766 35.7418C20.6887 34.9407 21.4897 34.1284 22.3 33.3255C22.488 33.1393 22.6598 32.9465 22.7607 32.6988C23.4351 32.7 24.0978 32.5058 24.7765 32.5774C25.1553 32.6731 24.9186 32.8302 24.803 32.9482C24.3095 33.4522 23.8047 33.9451 23.3096 34.4476C22.4509 35.3194 21.5964 36.1954 20.7401 37.0695C20.679 37.1378 20.6004 37.1525 20.5139 37.1443C20.3031 37.0839 20.0752 37.052 19.9554 36.8294Z" fill="#C8AC90"/>
<path d="M7.35943 47.1807C22.1964 47.181 37.0336 47.1812 51.8706 47.1816C51.8618 49.1263 51.8529 51.0711 51.844 53.0158C51.1084 53.1358 50.3676 53.0602 49.6297 53.0648C48.7222 53.0705 47.8138 53.1052 46.9066 53.0422C46.7831 52.9385 46.7571 52.7892 46.718 52.6449C46.2464 50.9009 45.1564 50.0546 43.339 50.0528C37.4113 50.0469 31.4837 50.0507 25.5561 50.0505C19.8154 50.0504 14.0748 50.0516 8.33411 50.0478C8.00274 50.0476 7.65643 50.107 7.35302 49.901C7.14394 49.6039 7.15169 49.2503 7.21333 48.9371C7.32854 48.3533 7.28936 47.7637 7.35943 47.1807Z" fill="#B28965"/>
<path d="M46.9101 53.0068C48.5548 53.0098 50.1995 53.0126 51.8442 53.0155C51.6919 53.2313 51.466 53.1272 51.2772 53.1281C49.1834 53.1374 47.0895 53.1351 44.9958 53.136C44.2464 53.1354 43.4971 53.1349 42.7478 53.1343C38.3634 53.1286 33.979 53.1206 29.5947 53.1181C27.9902 53.1172 26.386 53.1292 24.7815 53.1354C24.0321 53.3914 23.2829 53.4145 22.5338 53.1337C22.3475 53.1335 22.1612 53.1333 21.975 53.1331C19.5424 53.1341 17.1099 53.1351 14.6772 53.1361C13.8906 53.1346 13.104 53.1333 12.3174 53.1318C10.8581 53.1269 9.39875 53.1249 7.93942 53.1137C7.74303 53.1123 7.52328 53.1888 7.35742 53.0049C7.38651 52.981 7.41559 52.9571 7.44433 52.9326C7.70878 52.8052 7.99344 52.8332 8.27225 52.8332C20.8459 52.8311 33.4195 52.8311 45.9931 52.8338C46.307 52.8338 46.6353 52.7868 46.9101 53.0068Z" fill="#C8AC90"/>
<path d="M14.0081 26.3461C13.8128 27.3376 13.6176 28.3291 13.4223 29.3206C12.5358 29.5056 11.6485 29.6866 10.7454 29.7738C11.0075 28.5014 11.2694 27.229 11.5315 25.9566C11.5998 25.8757 11.6914 25.8435 11.7926 25.8306C12.4033 25.8685 13 26.0005 13.5994 26.1123C13.7554 26.1414 13.9391 26.1518 14.0081 26.3461Z" fill="#2A3A51"/>
<path d="M26.5646 15.1621C26.5371 14.3072 26.5094 13.4522 26.4819 12.5972C27.1818 12.7449 27.8931 12.8267 28.5449 13.1756C29.3971 13.6319 29.992 14.3029 30.3959 15.1639C29.1188 15.1633 27.8418 15.1627 26.5646 15.1621Z" fill="#354968"/>
<path d="M30.4292 18.8144C30.437 19.3185 30.0641 19.701 29.5629 19.7029C29.0798 19.7048 28.7125 19.356 28.6948 18.8785C28.676 18.3744 29.0356 17.9818 29.5318 17.9645C30.0393 17.9469 30.4215 18.3086 30.4292 18.8144Z" fill="#FDFDFD"/>
<path d="M44.3263 19.1969C44.182 18.4555 44.0377 17.7142 43.8936 16.9728C44.8876 16.9242 45.8497 16.9825 46.7069 17.5956C46.9987 17.8043 47.2523 18.0419 47.4816 18.3047C47.6124 18.4546 47.7297 18.5715 47.9362 18.5624C46.7328 18.7741 45.5296 18.9855 44.3263 19.1969Z" fill="#354968"/>
<path d="M47.8848 21.4056C48.3489 21.3983 48.7892 21.8342 48.786 22.2978C48.7828 22.7588 48.3969 23.1467 47.9267 23.1616C47.4215 23.1777 47.0241 22.808 47.0127 22.3115C47.0015 21.8239 47.3967 21.4134 47.8848 21.4056Z" fill="#FDFEFD"/>
<path d="M43.098 14.5701C42.6876 14.2374 42.2775 13.9046 41.8673 13.5718C41.7807 13.438 41.6941 13.304 41.6074 13.1702C42.5339 12.8875 43.5052 12.8535 44.4495 12.6614C45.5196 12.4436 46.6078 12.3141 47.6881 12.1462C48.0003 12.188 47.8681 12.3739 47.7876 12.5062C47.0028 13.7964 45.9656 14.7604 44.4296 15.0684C44.063 15.0493 43.7472 14.8789 43.4242 14.7302C43.3153 14.6767 43.2067 14.6234 43.098 14.5701Z" fill="#55648F"/>
<path d="M26.3362 11.2513C26.5262 10.4745 25.8353 10.2181 25.4629 9.77352C25.2634 9.44747 24.9842 9.17104 24.8569 8.79997C27.1147 8.79402 29.3727 8.78806 31.6305 8.78223C31.1373 9.95653 30.1994 10.6766 29.0972 11.2053C28.8419 11.3278 28.5785 11.5039 28.2631 11.4737C27.6336 11.3763 27.0969 11.0497 26.4468 10.7101C26.4468 11.201 26.4468 11.629 26.4468 12.0569C26.3209 11.8007 26.4017 11.5159 26.3362 11.2513Z" fill="#556490"/>
<path d="M15.9216 19.3135C16.3793 19.3594 16.4863 19.6604 16.4395 20.0518C16.3963 20.4132 16.3297 20.7717 16.2733 21.1315C16.2296 21.2804 16.186 21.4294 16.1423 21.5783C14.6876 23.0385 13.2525 24.5186 11.7577 25.9385C11.6822 25.9447 11.6069 25.9507 11.5314 25.9569C10.9705 25.8403 10.4095 25.7235 9.84863 25.6068C10.3502 25.0907 10.844 24.5667 11.3565 24.0617C11.6344 23.7879 11.8778 23.491 12.0934 23.1686C12.2904 22.9031 12.5171 22.6674 12.7891 22.4774C13.9404 21.5286 15.0332 20.5221 15.9216 19.3135Z" fill="#FEA81E"/>
<path d="M9.54663 18.1873C9.64263 17.4747 9.73875 16.7622 9.83476 16.0496C9.80522 16.4177 10.106 16.4294 10.3385 16.5254C11.336 16.9374 12.1522 17.5314 12.4323 18.6514C11.4704 18.4967 10.5085 18.3421 9.54663 18.1873Z" fill="#354967"/>
<path d="M12.7891 22.477C12.665 22.8159 12.4301 23.0432 12.0934 23.1682C11.4121 23.1336 11.0711 22.8703 11.0363 22.352C11.0045 21.8783 11.3321 21.4855 11.8092 21.4252C12.3912 21.3517 12.7473 21.7339 12.7891 22.477Z" fill="#FEFEFD"/>
<path d="M35.1108 36.7285C35.7005 36.7456 36.1674 36.8064 36.5939 36.9989C37.0167 37.1897 37.1345 37.5444 36.9518 37.9776C36.7727 38.4023 36.4761 38.4395 36.0889 38.2465C35.6925 38.0489 35.2606 38.0394 34.8279 38.0782C34.5393 38.104 34.3193 38.2549 34.247 38.5281C34.1777 38.7895 34.4035 38.9336 34.5853 39.0561C35.0655 39.3797 35.6106 39.5847 36.1181 39.8615C36.9719 40.3274 37.4336 41.4195 37.1041 42.47C36.8558 43.2618 35.8781 43.8526 34.8422 43.7934C34.1697 43.7549 33.5039 43.6295 32.9607 43.1784C32.5675 42.8519 32.5006 42.3982 32.78 42.0482C33.1281 41.6121 33.454 41.8047 33.7813 42.0857C34.1378 42.3918 34.5471 42.5344 35.0236 42.4791C35.3413 42.4423 35.6189 42.3473 35.7184 42.0129C35.815 41.6883 35.6094 41.4586 35.3725 41.3146C34.8952 41.0244 34.3885 40.7829 33.897 40.5158C32.8533 39.9487 32.4289 38.7652 32.969 37.8071C33.4596 36.9364 34.3278 36.7796 35.1108 36.7285Z" fill="#FEFEFE"/>
<path d="M24.4404 41.0043C23.8851 40.8735 23.7166 41.1113 23.7632 41.6486C23.8033 42.1113 23.7432 42.5819 23.7691 43.0467C23.7969 43.5472 23.4701 43.6578 23.1003 43.675C22.7048 43.6934 22.3215 43.5838 22.3183 43.086C22.306 41.1644 22.3112 39.2427 22.3147 37.3211C22.3153 36.9678 22.5346 36.8285 22.8612 36.8297C23.6821 36.8327 24.5048 36.8086 25.3235 36.8537C26.3753 36.9117 27.0351 37.6877 27.0072 38.7593C26.3257 39.5269 25.5746 40.2257 24.8401 40.9405C24.7331 41.0449 24.596 41.1247 24.4404 41.0043Z" fill="#FEFEFE"/>
<path d="M39.2497 38.7639C39.8463 39.3595 40.6942 39.521 41.3657 39.9952C42.431 40.7476 42.5479 42.4059 41.5669 43.2607C40.7184 44 38.7022 43.9411 37.9127 43.1463C37.5799 42.8113 37.5192 42.4366 37.8239 42.0455C38.1434 41.6352 38.4678 41.7884 38.7866 42.0494C39.1292 42.33 39.5005 42.5184 39.9635 42.4751C40.2891 42.4447 40.6231 42.4196 40.7211 42.0367C40.8214 41.6449 40.5891 41.4012 40.272 41.2266C39.8637 41.0018 39.4503 40.7861 39.0407 40.5634C38.6795 40.3671 38.3104 40.1783 38.1335 39.7707C38.4205 39.3408 38.7034 38.9064 39.2497 38.7639Z" fill="#FEFEFE"/>
<path d="M20.5165 37.064C20.591 37.066 20.6656 37.068 20.7402 37.0701C21.7217 37.7278 21.7662 38.7084 21.5769 39.7135C21.4045 40.6294 20.5954 41.1596 19.4719 41.2148C18.3927 41.2679 18.3927 41.2679 18.3927 42.3701C18.3927 42.5569 18.3768 42.7453 18.3955 42.9302C18.4488 43.4595 18.1967 43.6906 17.6875 43.6962C17.1515 43.702 16.9282 43.4789 16.9261 42.9034C16.9238 42.3059 16.9344 41.7083 16.9393 41.1106C17.0403 40.3989 17.828 39.5143 18.4213 39.4456C18.6415 39.9698 19.0063 40.1028 19.5648 39.8619C19.9952 39.6763 20.1719 39.1009 19.9438 38.6183C19.8648 38.4511 19.7078 38.3283 19.6661 38.1382C19.7564 37.6272 20.2028 37.3982 20.5165 37.064Z" fill="#FEFEFE"/>
<path d="M29.2628 38.6494C29.3129 39.6537 29.3129 39.6534 30.3273 39.6623C30.4579 39.6634 30.5963 39.6442 30.7174 39.6801C31.0207 39.7701 31.1932 39.9858 31.1524 40.3076C31.1166 40.5899 30.9739 40.7997 30.6414 40.7876C30.5668 40.7849 30.4919 40.7886 30.4173 40.7896C29.2425 40.8051 29.2549 40.8049 29.2734 41.9938C29.2787 42.3285 29.3673 42.46 29.7171 42.4473C30.3516 42.4245 30.9885 42.4623 31.6226 42.4345C32.1053 42.4133 32.2741 42.6885 32.2663 43.0807C32.2589 43.4506 32.0665 43.7044 31.6306 43.6996C30.5843 43.6885 29.5378 43.6998 28.4914 43.6943C28.0509 43.692 27.7979 43.509 27.8095 43.0159C27.833 42.0076 27.8272 40.9987 27.8335 39.99C28.2149 39.4421 28.5923 38.8896 29.2628 38.6494Z" fill="#FEFEFE"/>
<path d="M18.3743 39.4317C17.8437 39.9467 17.184 40.3515 16.939 41.1106C16.9326 39.8965 16.9303 38.6824 16.9171 37.4684C16.9126 37.0602 17.0818 36.8784 17.5 36.8121C18.3242 36.6814 19.137 36.9323 19.9551 36.83C20.1421 36.908 20.3292 36.986 20.5161 37.0642C20.4271 37.5502 19.8948 37.6977 19.7143 38.1139C19.5434 38.2572 19.3332 38.254 19.134 38.2419C18.7168 38.2163 18.5131 38.3734 18.5393 38.8134C18.5522 39.0282 18.5643 39.262 18.3743 39.4317Z" fill="#FEFEFE"/>
<path d="M39.2494 38.764C38.8774 39.0996 38.5054 39.435 38.1332 39.7706C37.2909 38.4164 37.9838 37.077 39.7063 36.7743C40.3388 36.6632 40.9771 36.7385 41.5739 36.982C42.0735 37.1859 42.1735 37.4905 41.9884 37.9674C41.7986 38.4564 41.4796 38.422 41.0896 38.2319C40.7266 38.055 40.3309 38.0549 39.9367 38.0736C39.4976 38.0943 39.231 38.2875 39.2494 38.764Z" fill="#FEFEFE"/>
<path d="M24.4404 41.0039C24.7193 40.9938 24.8383 40.7549 25.0141 40.5997C25.6926 40.0014 26.2145 39.2337 27.0073 38.7588C27.0434 39.5134 26.8554 40.168 26.1528 40.5667C25.9033 40.7083 25.9327 40.8533 26.0542 41.0602C26.3652 41.5899 26.6656 42.1257 26.9644 42.6625C27.2143 43.1113 27.0177 43.4247 26.6122 43.612C26.2331 43.7871 25.8569 43.8247 25.6221 43.3475C25.2359 42.5626 24.8351 41.7848 24.4404 41.0039Z" fill="#FEFEFE"/>
<path d="M29.2627 38.6494C28.7862 39.0964 28.3096 39.5433 27.8332 39.9902C27.8257 39.1523 27.8264 38.3143 27.807 37.4767C27.7966 37.0256 28.0052 36.8235 28.4432 36.8272C29.244 36.8342 30.0448 36.8399 30.8457 36.8462C30.9981 37.0606 30.831 37.1978 30.7116 37.3276C30.4723 37.5878 30.2327 37.8496 29.9505 38.0665C29.5499 38.0589 29.1517 38.0539 29.2627 38.6494Z" fill="#FEFEFE"/>
<path d="M29.9507 38.0663C29.9938 37.7339 30.3031 37.6076 30.4827 37.3809C30.6171 37.2111 30.8428 37.1047 30.8458 36.846C31.126 36.8399 31.4066 36.8418 31.6862 36.8258C32.1041 36.8019 32.2742 37.0544 32.2732 37.4082C32.2722 37.769 32.1285 38.0783 31.6882 38.08C31.109 38.0823 30.5299 38.0716 29.9507 38.0663Z" fill="#FDFDFD"/>
<path d="M7.40966 53.0205C7.39978 51.9707 7.3899 50.9209 7.38013 49.8711C19.4451 49.8713 31.51 49.8711 43.5749 49.8723C45.4132 49.8726 46.8702 51.2454 46.91 53.0069C34.005 53.0087 21.1 53.0104 8.19502 53.0126C7.93327 53.0126 7.67152 53.0177 7.40966 53.0205Z" fill="#BC9A7A"/>
<path d="M11.7578 25.9384C11.7577 25.7709 11.8734 25.6722 11.9785 25.5671C13.2269 24.3189 14.4754 23.0706 15.7238 21.8224C15.842 21.7043 15.9522 21.5727 16.1425 21.5783C15.91 23.0428 15.6866 24.5088 15.4384 25.9708C15.382 26.3029 15.1318 26.4707 14.7817 26.4374C14.5233 26.4128 14.266 26.3768 14.0081 26.3461C13.2579 26.2103 12.5078 26.0744 11.7578 25.9384Z" fill="#FEA81E"/>
<path d="M23.7725 38.938C23.7852 38.0145 23.6543 38.0889 24.4114 38.0836C25.2802 38.0775 25.5608 38.2889 25.566 38.9346C25.5708 39.5379 25.2225 39.8679 24.5718 39.8613C23.6288 39.8516 23.789 39.9771 23.7725 38.938Z" fill="#C9AD92"/>
<path d="M18.3745 39.4314C18.3788 39.3034 18.3836 39.1753 18.3873 39.0473C18.418 37.9687 18.1494 38.0836 19.3867 38.0828C19.4961 38.0827 19.6054 38.1025 19.7146 38.1133C19.9657 38.3398 20.1831 38.5627 20.1868 38.9523C20.1952 39.843 19.3709 40.429 18.5495 40.0745C18.2478 39.9444 18.4564 39.6406 18.3745 39.4314Z" fill="#C8AC91"/>
</svg>
