<?xml version="1.0" encoding="UTF-8"?>
<svg id="Layer_1" data-name="Layer 1" xmlns="http://www.w3.org/2000/svg" viewBox="0 0 100 100">
  <defs>
    <style>
      .cls-1 {
        fill: #fff;
      }
    </style>
  </defs>
  <path class="cls-1" d="M62.49,39.67c0,1.24-1,2.24-2.24,2.24s-2.24-1.01-2.24-2.24,1.01-2.24,2.24-2.24,2.24,1.01,2.24,2.24Zm-2.79,10.06c0,5.2-4.23,9.43-9.43,9.43s-9.43-4.23-9.43-9.43,4.23-9.43,9.43-9.43,9.43,4.23,9.43,9.43Zm-3.39,0c0-3.33-2.71-6.04-6.04-6.04s-6.04,2.71-6.04,6.04,2.71,6.04,6.04,6.04,6.04-2.71,6.04-6.04Zm13.04-7.57c0-6.35-5.15-11.5-11.5-11.5h-15.69c-6.35,0-11.5,5.15-11.5,11.5v15.69c0,6.35,5.15,11.5,11.5,11.5h15.69c6.35,0,11.5-5.15,11.5-11.5v-15.69Zm-3.78,15.52c0,4.36-3.54,7.9-7.9,7.9h-15.35c-4.36,0-7.9-3.54-7.9-7.9v-15.35c0-4.36,3.54-7.9,7.9-7.9h15.35c4.36,0,7.9,3.54,7.9,7.9v15.35Z"/>
  <path class="cls-1" d="M50,12.53C29.34,12.53,12.53,29.34,12.53,50s16.81,37.47,37.47,37.47,37.47-16.81,37.47-37.47S70.66,12.53,50,12.53Zm0,70.13c-18.01,0-32.66-14.65-32.66-32.66S31.99,17.34,50,17.34s32.66,14.65,32.66,32.66-14.65,32.66-32.66,32.66Z"/>
</svg>