<svg width="29" height="28" viewBox="0 0 29 28" fill="none" xmlns="http://www.w3.org/2000/svg">
<path d="M12.8009 0.488525C15.9955 0.488525 19.0592 1.74005 21.3181 3.96777C23.577 6.19549 24.846 9.21693 24.846 12.3674C24.846 15.3097 23.7527 18.0144 21.9552 20.0978L22.4555 20.5912H23.9195L28.1576 24.9908L25.3779 27.7321L21.1398 23.3325V21.8888L20.6395 21.3954C18.527 23.1681 15.7844 24.2463 12.8009 24.2463C9.60639 24.2463 6.54267 22.9948 4.28378 20.767C2.02489 18.5393 0.755859 15.5179 0.755859 12.3674C0.755859 9.21693 2.02489 6.19549 4.28378 3.96777C6.54267 1.74005 9.60639 0.488525 12.8009 0.488525ZM12.8009 4.14357C8.16822 4.14357 4.46204 7.79861 4.46204 12.3674C4.46204 16.9362 8.16822 20.5912 12.8009 20.5912C17.4337 20.5912 21.1398 16.9362 21.1398 12.3674C21.1398 7.79861 17.4337 4.14357 12.8009 4.14357Z" fill="#595959"/>
</svg>
