<svg width="19" height="19" viewBox="0 0 19 19" fill="none" xmlns="http://www.w3.org/2000/svg">
<path d="M12.0406 16.2145L6.07046 14.115V2.28423L12.0406 4.38372V16.2145ZM17.5132 0.294189C17.4535 0.294189 17.4037 0.294189 17.354 0.294189L12.0406 2.38373L6.07046 0.294189L0.458549 2.18473C0.249595 2.25438 0.100342 2.43348 0.100342 2.66234V17.707C0.100342 17.839 0.152758 17.9655 0.246059 18.0588C0.33936 18.1521 0.465904 18.2045 0.597851 18.2045C0.647602 18.2045 0.707304 18.2045 0.757055 18.1747L6.07046 16.115L12.0406 18.2045L17.6525 16.314C17.8614 16.2145 18.0107 16.0652 18.0107 15.8364V0.791699C18.0107 0.659751 17.9583 0.533208 17.865 0.439907C17.7717 0.346606 17.6451 0.294189 17.5132 0.294189Z" fill="#1B78CD"/>
</svg>
