<?xml version="1.0" encoding="UTF-8"?>
<svg id="Layer_1" data-name="Layer 1" xmlns="http://www.w3.org/2000/svg" viewBox="0 0 100 100">
  <defs>
    <style>
      .cls-1 {
        fill: #fff;
      }
    </style>
  </defs>
  <path class="cls-1" d="M70.01,45.06c0-4.83-3.92-8.75-8.75-8.75h-22.53c-4.83,0-8.75,3.92-8.75,8.75v9.88c0,4.83,3.92,8.75,8.75,8.75h22.53c4.83,0,8.75-3.92,8.75-8.75v-9.88Zm-12.39,5.2l-10.07,4.97c-.39,.21-1.77-.07-1.77-.52v-10.19c0-.45,1.39-.74,1.78-.51l9.63,5.23c.4,.23,.84,.81,.44,1.03Z"/>
  <path class="cls-1" d="M50,12.53C29.34,12.53,12.53,29.34,12.53,50s16.81,37.47,37.47,37.47,37.47-16.81,37.47-37.47S70.66,12.53,50,12.53Zm0,70.13c-18.01,0-32.67-14.65-32.67-32.67S31.99,17.34,50,17.34s32.67,14.65,32.67,32.66-14.65,32.67-32.67,32.67Z"/>
</svg>